<svg xmlns="http://www.w3.org/2000/svg" xmlns:xlink="http://www.w3.org/1999/xlink" style="position: absolute; width: 0; height: 0" aria-hidden="true" id="__SVG_SPRITE_NODE__"><symbol xmlns="http://www.w3.org/2000/svg" viewBox="0 0 24 24" id="icon-Flowaudit">
  <g id="icon-Flowaudit_组_3805" data-name="组 3805" transform="translate(161 -436)">
    <rect id="icon-Flowaudit_矩形_8426" data-name="矩形 8426" width="24" height="24" transform="translate(-161 436)" fill="none"/>
    <path id="icon-Flowaudit_路径_2376" data-name="路径 2376" d="M-154,450.5a7.509,7.509,0,0,1,7.5-7.5,7.444,7.444,0,0,1,3.5.872V438a2,2,0,0,0-2-2h-14a2,2,0,0,0-2,2v20a2,2,0,0,0,2,2h14a2,2,0,0,0,2-2v-.872a7.444,7.444,0,0,1-3.5.872A7.509,7.509,0,0,1-154,450.5Zm-4-12.5h12a1,1,0,0,1,1,1,1,1,0,0,1-1,1h-12a1,1,0,0,1-1-1A1,1,0,0,1-158,438Zm0,4h5a1,1,0,0,1,1,1,1,1,0,0,1-1,1h-5a1,1,0,0,1-1-1A1,1,0,0,1-158,442Zm2,6h-2a1,1,0,0,1-1-1,1,1,0,0,1,1-1h2a1,1,0,0,1,1,1A1,1,0,0,1-156,448Zm18.707,10.293-4.677-4.677A5.47,5.47,0,0,0-141,450.5a5.5,5.5,0,0,0-5.5-5.5,5.5,5.5,0,0,0-5.5,5.5,5.5,5.5,0,0,0,5.5,5.5,5.47,5.47,0,0,0,3.116-.97l4.677,4.677A1,1,0,0,0-138,460a1,1,0,0,0,.707-.293A1,1,0,0,0-137.293,458.293ZM-146.5,454.5a.5.5,0,0,1-.5-.5.5.5,0,0,1,.5-.5,3,3,0,0,0,3-3,.5.5,0,0,1,.5-.5.5.5,0,0,1,.5.5A4,4,0,0,1-146.5,454.5Z" fill="currentColor"/>
  </g>
</symbol><symbol xmlns="http://www.w3.org/2000/svg" viewBox="0 0 28 28" id="icon-activity"><path class="b" d="M304.7,41.129a.954.954,0,0,1-.676-.289l-5.066-5.066a.955.955,0,0,1,1.351-1.351l4.39,4.39,4.391-4.39a.955.955,0,0,1,1.351,1.351l-5.066,5.066A.953.953,0,0,1,304.7,41.129Z" transform="translate(-291.285 -34.133)"/><path class="b" d="M62.683,221.867H39.235a1.71,1.71,0,0,0-1.689,1.689v3.136a1.709,1.709,0,0,0,1.689,1.688h.241v12.593a2.646,2.646,0,0,0,2.654,2.653H59.837a2.646,2.646,0,0,0,2.654-2.653V228.38h.241a1.71,1.71,0,0,0,1.689-1.689v-3.136A1.786,1.786,0,0,0,62.683,221.867ZM51.924,241.648h-1.93V228.622h1.93Z" transform="translate(-37.547 -216.56)"/></symbol><symbol xmlns="http://www.w3.org/2000/svg" viewBox="0 0 20 20" id="icon-activity_sel">
  <rect id="icon-activity_sel_矩形_1312" data-name="矩形 1312" width="20" height="20" fill="none"/>
  <g id="icon-activity_sel_组_3353" data-name="组 3353">
    <rect id="icon-activity_sel_矩形_8417" data-name="矩形 8417" width="5" height="12" transform="translate(8 8)" fill="#fff"/>
    <path id="icon-activity_sel_路径_2128" data-name="路径 2128" d="M303.156,39.3a.712.712,0,0,1-.5-.214l-3.77-3.743a.686.686,0,0,1,0-1,.7.7,0,0,1,1.006,0l3.268,3.244,3.268-3.244a.7.7,0,0,1,1.005,0,.686.686,0,0,1,0,1l-3.77,3.743A.712.712,0,0,1,303.156,39.3Z" transform="translate(-293.173 -34.133)" fill="#0f1213"/>
    <path id="icon-activity_sel_路径_2129" data-name="路径 2129" d="M56.254,221.867H38.8a1.268,1.268,0,0,0-1.257,1.248v2.317A1.268,1.268,0,0,0,38.8,226.68h.18v9.3a1.962,1.962,0,0,0,1.975,1.961H54.136a1.962,1.962,0,0,0,1.975-1.961v-9.3h.18a1.268,1.268,0,0,0,1.257-1.248v-2.317A1.325,1.325,0,0,0,56.254,221.867Zm-8.007,14.617H46.811v-9.626h1.436Z" transform="translate(-37.547 -217.945)" fill="#0f1213"/>
  </g>
</symbol><symbol xmlns="http://www.w3.org/2000/svg" viewBox="0 0 20 20" id="icon-agentmenger">
  <path id="icon-agentmenger_联合_20" data-name="联合 20" d="M16.376,19.976a3.216,3.216,0,0,1-.309-6.335V12.269a.5.5,0,0,0-.5-.5h-4.5v1.975a3.215,3.215,0,1,1-2.145,0V11.767h-4.5a.5.5,0,0,0-.5.5v1.372a3.2,3.2,0,1,1-2.145.262V12.263a2.637,2.637,0,0,1,2.64-2.63h4.5V8.412a4.289,4.289,0,1,1,2.144,0v1.22h4.5a2.637,2.637,0,0,1,2.64,2.63V13.9l.011,0a3.217,3.217,0,0,1-1.44,6.1A3.263,3.263,0,0,1,16.376,19.976Z" transform="translate(0)" fill=""/>
</symbol><symbol xmlns="http://www.w3.org/2000/svg" viewBox="0 0 24 24" id="icon-arrow_down">
  <g id="icon-arrow_down_组_3632" data-name="组 3632">
    <rect id="icon-arrow_down_矩形_8329" data-name="矩形 8329" width="24" height="24" fill="none"/>
    <path id="icon-arrow_down_绿色箭头-下-2" data-name="绿色箭头-下" d="M12,0,24,18H0Z" transform="translate(24 21) rotate(180)"/>
  </g>
</symbol><symbol xmlns="http://www.w3.org/2000/svg" viewBox="0 0 10 10" id="icon-arrow_down_2">
  <rect id="icon-arrow_down_2_矩形_8124" data-name="矩形 8124" width="10" height="10" transform="translate(10) rotate(90)" fill="none"/>
  <path id="icon-arrow_down_2_进入箭头-大" d="M-1585-9.093l-4.52-4.366,1.04-1.081,3.48,3.349,3.48-3.349,1.04,1.081Z" transform="translate(1590 17)" fill=""/>
</symbol><symbol xmlns="http://www.w3.org/2000/svg" viewBox="0 0 24 24" id="icon-arrow_next">
  <rect id="icon-arrow_next_矩形_8199" data-name="矩形 8199" width="24" height="24" fill="none"/>
  <path id="icon-arrow_next_箭头_页面_向右" d="M260.771,262.4,256,267.171l1.629,1.629,6.4-6.4-6.4-6.4L256,257.629l4.771,4.771Zm6.982,0-4.771,4.771,1.629,1.629,6.4-6.4-6.284-6.4-1.745,1.629Z" transform="translate(-251.2 -250.4)"/>
</symbol><symbol xmlns="http://www.w3.org/2000/svg" viewBox="0 0 10 10" id="icon-arrow_right">
  <g id="icon-arrow_right_箭头右-10" transform="translate(-2212 -2604)">
    <rect id="icon-arrow_right_矩形_8363" data-name="矩形 8363" width="10" height="10" transform="translate(2212 2604)" fill="none"/>
    <path id="icon-arrow_right_进入箭头-大" d="M-1585-9.125l-4.52-4.335,1.04-1.081,3.48,3.349,3.48-3.349,1.04,1.081Z" transform="translate(2229 1024) rotate(-90)" fill=""/>
  </g>
</symbol><symbol xmlns="http://www.w3.org/2000/svg" viewBox="0 0 24 24" id="icon-arrow_top">
  <g id="icon-arrow_top_组_3604" data-name="组 3604">
    <rect id="icon-arrow_top_矩形_8268" data-name="矩形 8268" width="24" height="24" fill="none"/>
    <path id="icon-arrow_top_下拉箭头" d="M10.348-.713l.525-.439.527.44,11.047,9.6-3.815,3.421L10.873,5.565l-7.76,6.743L-.7,8.887,8.966.487l.548.491h0L8.967.487Z" transform="translate(1.127 6.402)"/>
  </g>
</symbol><symbol xmlns="http://www.w3.org/2000/svg" viewBox="0 0 24 24" id="icon-arrow_up">
  <g id="icon-arrow_up_组_3633" data-name="组 3633">
    <rect id="icon-arrow_up_矩形_8330" data-name="矩形 8330" width="24" height="24" fill="none"/>
    <path id="icon-arrow_up_红色箭头-上-2" data-name="红色箭头-上" d="M12,0,24,18H0Z" transform="translate(0 3)"/>
  </g>
</symbol><symbol xmlns="http://www.w3.org/2000/svg" viewBox="0 0 20 20" id="icon-bet_my"><defs><style>#icon-bet_my .a{fill:none;}</style></defs><rect class="a" width="20" height="20"/><path class="b" d="M14.265,16.667a.437.437,0,0,1-.128-.02h-.018a.437.437,0,0,1-.276-.1l-2.26-1.5L9.756,16.522a.437.437,0,0,1-.55,0L7.367,15.04l-1.9,1.529a.437.437,0,0,1-.55,0L3.093,15.1.866,16.569a.436.436,0,0,1-.275.1.461.461,0,0,1-.075-.007.42.42,0,0,1-.073.007A.45.45,0,0,1,0,16.212V1.666A1.649,1.649,0,0,1,1.628,0H13.082a1.6,1.6,0,0,1,1.138.476,1.669,1.669,0,0,1,.49,1.191V16.212A.45.45,0,0,1,14.265,16.667ZM2.988,10.01a.568.568,0,0,0,0,1.137h6a.568.568,0,1,0,0-1.137Zm0-2.845a.568.568,0,1,0,0,1.136h8.733a.568.568,0,0,0,0-1.136Zm0-2.846a.568.568,0,0,0,0,1.137h8.733a.568.568,0,0,0,0-1.137Z" transform="translate(2.5 1.667)"/></symbol><symbol xmlns="http://www.w3.org/2000/svg" xmlns:xlink="http://www.w3.org/1999/xlink" viewBox="0 0 24 25" id="icon-birthday">
   
    <g id="icon-birthday_页面-1" stroke="none" stroke-width="1">
        <g id="icon-birthday_生日好礼" transform="translate(-0.000000, 0.355555)">
            <path d="M12,6.55012987 C12.9059309,6.5734002 13.7675312,6.15855559 14.3142857,5.43584417 C14.7942857,4.78285717 14.7942857,3.89298703 14.3142857,3.24155844 L12,0 L9.70285714,3.24155844 C9.22285713,3.89454544 9.22285713,4.78441559 9.70285714,5.43584417 C10.2467532,6.15272729 11.1007792,6.56727273 12,6.55012987 L12,6.55012987 Z M18.12,17.4358442 L16.68,16.2701299 L15.24,17.4358442 C13.3018108,18.8591678 10.6639035,18.8591678 8.72571429,17.4358442 L7.2857143,16.2701299 L5.84571428,17.4358442 C4.92482385,18.1666866 3.78133043,18.5599515 2.60571428,18.5501299 C1.69413593,18.553193 0.796997557,18.3224696 0,17.88 L0,22.9215584 C0.0716883147,23.5916883 0.667012975,24.0779221 1.33714287,24.0187013 L22.6457143,24.0187013 C23.3159911,24.0786539 23.9107605,23.590638 23.9828571,22.9215584 L23.9828571,17.8815585 C23.1859995,18.3242032 22.2886789,18.5544368 21.3771429,18.5501299 C20.1956622,18.5638903 19.0454758,18.1704056 18.12,17.4358442 L18.12,17.4358442 Z M19.9885714,9.80727273 L13.32,9.80727273 L13.32,7.63012987 L10.6628571,7.63012987 L10.6628571,9.8244156 L3.99428571,9.8244156 C1.99344444,9.6444701 0.217025195,11.0999833 3.55271368e-15,13.0971429 L3.55271368e-15,14.8114286 C0.143289748,16.114602 1.29932088,17.0659769 2.60571428,16.9558442 C3.28191276,16.9540255 3.93643443,16.7171195 4.45714285,16.2857143 L7.30285713,13.9558442 L10.1485714,16.2872727 C11.2457143,17.0898701 12.7355844,17.0898701 13.8342857,16.2872727 L16.68,13.9558442 L19.5257143,16.2872727 C20.0509091,16.708052 20.7054545,16.9309091 21.3771429,16.9215585 C22.6953699,17.0411521 23.864601,16.0782559 24,14.7615585 L24,13.0472727 C23.7413271,11.0722879 21.9729047,9.65150408 19.9885714,9.8244156 L19.9885714,9.80727273 L19.9885714,9.80727273 Z" id="icon-birthday_形状"/>
        </g>
    </g>
</symbol><symbol xmlns="http://www.w3.org/2000/svg" viewBox="0 0 22 22" id="icon-bouns">
  <path id="icon-bouns_路径_2284" data-name="路径 2284" d="M-9542.831,433h-7.265a4.874,4.874,0,0,1-3.867-1.887,4.873,4.873,0,0,1-.889-4.209l.923-3.677a6.408,6.408,0,0,1,1.991-3.265,6.41,6.41,0,0,1,3.491-1.559,15.233,15.233,0,0,1,1.843-.112,15.327,15.327,0,0,1,1.945.125,6.454,6.454,0,0,1,5.327,4.456l1.177,3.759a4.921,4.921,0,0,1-.726,4.369A4.917,4.917,0,0,1-9542.831,433Zm-6.016-5.713a.536.536,0,0,0-.534.536,2.166,2.166,0,0,0,2.124,2.2h.257v.417a.542.542,0,0,0,.536.536.544.544,0,0,0,.536-.536v-.417h.464a1.958,1.958,0,0,0,1.922-1.987,1.778,1.778,0,0,0-1.307-1.886l-1.079-.386v-2.417h.258a1.092,1.092,0,0,1,1.05,1.129.537.537,0,0,0,.537.536.537.537,0,0,0,.537-.536,2.166,2.166,0,0,0-2.124-2.2h-.258v-.415a.544.544,0,0,0-.536-.536.542.542,0,0,0-.536.536v.415h-.465a1.959,1.959,0,0,0-1.925,1.987,1.781,1.781,0,0,0,1.31,1.887l1.08.386v2.415h-.257a1.094,1.094,0,0,1-1.053-1.129A.537.537,0,0,0-9548.847,427.286Zm3.383,1.667h-.457v-2.036l.721.251c.365.128.588.25.588.871A.886.886,0,0,1-9545.464,428.953Zm-1.535-3.559h0l-.72-.252c-.366-.128-.589-.25-.589-.871a.887.887,0,0,1,.844-.922h.466v2.044Zm2.605-8.329h-4.361a1.824,1.824,0,0,1-1.436-.69l-.675-.841a.94.94,0,0,1-.113-1,.949.949,0,0,1,.85-.534h7.108a.953.953,0,0,1,.851.534.943.943,0,0,1-.113,1l-.674.841A1.829,1.829,0,0,1-9544.394,417.064Z" transform="translate(9557.467 -412.5)"/>
  <rect id="icon-bouns_矩形_8166" data-name="矩形 8166" width="22" height="22" fill="none"/>
</symbol><symbol xmlns="http://www.w3.org/2000/svg" viewBox="0 0 28 28" id="icon-c1"><path class="a" d="M14,0A14,14,0,1,0,28,14,14,14,0,0,0,14,0Zm6.5,21.316H8.107v-.774L10.43,18.22V9.692l-.776-.77L8.107,7.372H15.85l-.77.774-.776.776-.776.77v8.525h6.2l2.323-2.324Z"/></symbol><symbol xmlns="http://www.w3.org/2000/svg" viewBox="0 0 27.999 27.999" id="icon-c128"><path class="b" d="M14,28A14,14,0,0,1,4.1,4.1,14,14,0,0,1,23.9,23.9,13.908,13.908,0,0,1,14,28Zm-.406-15.3a.835.835,0,0,0-.6.251l-1.023,1.036a1.817,1.817,0,0,0-.148,2.626L15.36,20.19a.952.952,0,0,0,1.359,0l6.8-6.878a.981.981,0,0,0,0-1.376L19.439,7.809a.953.953,0,0,0-1.36,0L16.5,9.4a.278.278,0,0,0,0,.389l.624.631a3.143,3.143,0,0,1,0,4.4l-1.1,1.113a2.194,2.194,0,0,1-3.1.028.729.729,0,0,1-.217-.525.666.666,0,0,1,1.131-.476.908.908,0,0,0,.633.262.838.838,0,0,0,.6-.252l1.1-1.113a1.768,1.768,0,0,0,0-2.476L12.641,7.809a.954.954,0,0,0-1.36,0l-6.8,6.878a.982.982,0,0,0,0,1.376l4.08,4.127a.953.953,0,0,0,1.359,0L11.5,18.6a.278.278,0,0,0,0-.39l-.624-.631a3.143,3.143,0,0,1,0-4.4l1.19-1.2a2.165,2.165,0,0,1,3.09,0,.7.7,0,0,1,.07.922.668.668,0,0,1-1,.068A.9.9,0,0,0,13.595,12.7Zm-7.65,3.25a.164.164,0,0,1-.131-.067.168.168,0,0,1-.025-.151,3.429,3.429,0,0,0,.157-1.087.163.163,0,0,1,.047-.119.161.161,0,0,1,.116-.049h.059a3.335,3.335,0,0,0,1.02-.159.167.167,0,0,1,.052-.008.164.164,0,0,1,.131.067.168.168,0,0,1,.025.151,3.4,3.4,0,0,0-.158,1.087.166.166,0,0,1-.048.12.16.16,0,0,1-.114.048H7.021A3.363,3.363,0,0,0,6,15.942.167.167,0,0,1,5.944,15.95ZM22.235,13.1h-.958a.332.332,0,0,1-.33-.334V11.8a.494.494,0,0,1,.462-.5h.014a.479.479,0,0,1,.476.481v.026a.333.333,0,0,0,.329.335h.027a.47.47,0,0,1,.339.143.483.483,0,0,1,.137.352A.493.493,0,0,1,22.235,13.1Z"/></symbol><symbol xmlns="http://www.w3.org/2000/svg" viewBox="0 0 20 20" id="icon-c128_sel">
  <rect id="icon-c128_sel_矩形_1264" data-name="矩形 1264" width="20" height="20" fill="none"/>
  <circle id="icon-c128_sel_椭圆_24" data-name="椭圆 24" cx="8.572" cy="8.572" r="8.572" transform="translate(1.429 1.488)" fill="#fff"/>
  <path id="icon-c128_sel_减去_14" data-name="减去 14" d="M10,20A10,10,0,1,1,20,10,10.011,10.011,0,0,1,10,20ZM9.71,9.072a.6.6,0,0,0-.427.18l-.732.74a1.3,1.3,0,0,0-.106,1.876l2.525,2.555a.681.681,0,0,0,.971,0L16.8,9.509a.7.7,0,0,0,0-.983L13.885,5.578a.682.682,0,0,0-.972,0L11.788,6.717a.2.2,0,0,0,0,.278l.446.45a2.244,2.244,0,0,1,0,3.145l-.787.8a1.567,1.567,0,0,1-2.214.02.521.521,0,0,1-.155-.375.476.476,0,0,1,.807-.34.651.651,0,0,0,.454.188.6.6,0,0,0,.428-.18l.787-.8a1.263,1.263,0,0,0,0-1.769L9.029,5.578a.68.68,0,0,0-.971,0L3.2,10.491a.7.7,0,0,0,0,.983l2.913,2.947a.681.681,0,0,0,.971,0l1.126-1.138a.2.2,0,0,0,0-.277l-.446-.451a2.244,2.244,0,0,1,0-3.145l.85-.859a1.546,1.546,0,0,1,2.207,0,.5.5,0,0,1,.05.659.479.479,0,0,1-.711.049A.645.645,0,0,0,9.71,9.072ZM4.246,11.393a.117.117,0,0,1-.094-.048.119.119,0,0,1-.017-.107,2.484,2.484,0,0,0,.113-.778.117.117,0,0,1,.116-.12H4.4a2.393,2.393,0,0,0,.729-.114.115.115,0,0,1,.13.042.119.119,0,0,1,.018.107,2.445,2.445,0,0,0-.113.777.118.118,0,0,1-.034.085.116.116,0,0,1-.083.035H5.016a2.4,2.4,0,0,0-.734.115A.122.122,0,0,1,4.246,11.393ZM15.881,9.361H15.2a.237.237,0,0,1-.236-.238V8.43a.352.352,0,0,1,.329-.358H15.3a.342.342,0,0,1,.339.344v.019a.237.237,0,0,0,.236.238H15.9a.336.336,0,0,1,.242.1.344.344,0,0,1,.1.252A.353.353,0,0,1,15.881,9.361Z" transform="translate(0 0)" fill="#0f1213"/>
</symbol><symbol xmlns="http://www.w3.org/2000/svg" viewBox="0 0 22.001 22" id="icon-c16">
  <rect id="icon-c16_矩形_8368" data-name="矩形 8368" width="22" height="22" fill="none"/>
  <path id="icon-c16_路径_2356" data-name="路径 2356" d="M13,17.2H9A9,9,0,1,1,9-.8h4a9,9,0,0,1,0,18ZM4.707,7.734a.707.707,0,0,0,0,1.413h1.8v1.8a.706.706,0,1,0,1.412,0v-1.8H9.745a.707.707,0,0,0,0-1.413H7.924V5.908a.706.706,0,1,0-1.412,0V7.734ZM15.124,5.276a3.15,3.15,0,1,0,3.151,3.151A3.154,3.154,0,0,0,15.124,5.276Zm0,4.725A1.575,1.575,0,1,1,16.7,8.427,1.576,1.576,0,0,1,15.124,10Z" transform="translate(0 2.799)"/>
</symbol><symbol xmlns="http://www.w3.org/2000/svg" viewBox="0 0 20 20" id="icon-c16_sel">
  <rect id="icon-c16_sel_矩形_8178" data-name="矩形 8178" width="15.715" height="7.143" transform="translate(2.143 10.059)" fill="#fff"/>
  <g id="icon-c16_sel_组_3410" data-name="组 3410" transform="translate(0)">
    <path id="icon-c16_sel_路径_146" data-name="路径 146" d="M4653.25,3287.25a.733.733,0,0,1-.75-.714v-3.1a.733.733,0,0,1,.75-.714h2.375v-2.262a.751.751,0,0,1,1.5,0v2.976a.732.732,0,0,1-.75.714H4654v2.381A.732.732,0,0,1,4653.25,3287.25Z" transform="translate(-4643.75 -3279.75)" fill="#0f1213"/>
    <path id="icon-c16_sel_减去_10" data-name="减去 10" d="M13,14H7A7,7,0,0,1,7,0h6a7,7,0,0,1,0,14ZM4.08,6.341a.672.672,0,1,0,0,1.345H5.8V9.4a.673.673,0,1,0,1.345,0V7.686H8.878a.672.672,0,1,0,0-1.345H7.143V4.6A.673.673,0,0,0,5.8,4.6V6.341ZM14,4a3,3,0,1,0,3,3A3,3,0,0,0,14,4Zm0,4.5A1.5,1.5,0,1,1,15.5,7,1.5,1.5,0,0,1,14,8.5Z" transform="translate(0 6)" fill="#0f1213"/>
  </g>
</symbol><symbol xmlns="http://www.w3.org/2000/svg" viewBox="0 0 20 20" id="icon-c1_sel">
  <circle id="icon-c1_sel_椭圆_21" data-name="椭圆 21" cx="8.571" cy="8.571" r="8.571" transform="translate(1.429 1.429)" fill="#fff"/>
  <path id="icon-c1_sel_英雄联盟" d="M10,0A10,10,0,1,0,20,10,10,10,0,0,0,10,0Zm4.646,15.226H5.791v-.553L7.45,13.014V6.923L6.9,6.373,5.791,5.266h5.531l-.55.553-.554.554-.554.55v6.089h4.43l1.659-1.66Z" fill="#0f1213"/>
</symbol><symbol xmlns="http://www.w3.org/2000/svg" viewBox="0 0 27.999 27.999" id="icon-c2"><path class="b" d="M5.661,23.872a3.081,3.081,0,0,1-.588-.057L.825,22.989A5.012,5.012,0,0,0,3.806,21.7l1.618.315a1.222,1.222,0,0,0,1.434-.968L10.127,4.233A1.225,1.225,0,0,0,9.159,2.8L5.439,2.076v-.37A5,5,0,0,0,5.195.158L9.509,1a3.062,3.062,0,0,1,2.418,3.586L8.66,21.4A3.062,3.062,0,0,1,5.661,23.872Z" transform="translate(16.015 3.81)"/><path class="b" d="M16.762,26.3H4a4,4,0,0,1-4-4V4A4,4,0,0,1,4,0H16.762a4,4,0,0,1,4,4V22.3A4,4,0,0,1,16.762,26.3ZM9.72,17.019v0l-1.253,3h3.83l-1.255-3a3.648,3.648,0,0,0,2.148.664c.072,0,.134,0,.191,0a3.3,3.3,0,0,0,2.234-.973,3.14,3.14,0,0,0,1-2.268,5.291,5.291,0,0,0-1.43-3.352,39.429,39.429,0,0,0-3.9-3.784L10.4,6.547l-.029.023-.031-.024L9.48,7.3l-.056.05a39.306,39.306,0,0,0-3.849,3.737A5.3,5.3,0,0,0,4.149,14.44a3.136,3.136,0,0,0,1,2.268,3.292,3.292,0,0,0,2.234.973c.057,0,.119,0,.191,0a3.65,3.65,0,0,0,2.145-.663Zm-2.158-.8h0l-.117,0a1.835,1.835,0,0,1-1.27-.554,1.688,1.688,0,0,1-.56-1.221,3.929,3.929,0,0,1,1.092-2.416A38.374,38.374,0,0,1,10.38,8.465l.019.016a38.07,38.07,0,0,1,3.654,3.542,3.924,3.924,0,0,1,1.092,2.416,1.688,1.688,0,0,1-.559,1.222,1.828,1.828,0,0,1-1.27.553l-.111,0A2.3,2.3,0,0,1,11.6,15.6a6.619,6.619,0,0,1-.653-.66l-.566-.679-.564.679a6.607,6.607,0,0,1-.652.66A2.258,2.258,0,0,1,7.562,16.218Z" transform="translate(0.692 0.515)"/></symbol><symbol xmlns="http://www.w3.org/2000/svg" viewBox="0 0 20 20" id="icon-c2_sel">
  <path id="icon-c2_sel_路径_2314" data-name="路径 2314" d="M3,5.332H16.929l2.441.655.6,1.548L18.536,14.32l-1.607,6.072-1.548.417-3.1-1.667s-6.964-1.548-7.2-1.726S1.75,10.63,1.75,10.63Z" transform="translate(-0.5 -1.523)" fill="#fff"/>
  <g id="icon-c2_sel_组_3409" data-name="组 3409">
    <rect id="icon-c2_sel_矩形_1126" data-name="矩形 1126" width="20" height="20" fill="none"/>
    <path id="icon-c2_sel_减去_7" data-name="减去 7" d="M3.831,17.01a2.2,2.2,0,0,1-.419-.041l-3.624-.7a5.013,5.013,0,0,0,1.982-.95l1.892.368a.873.873,0,0,0,1.024-.691L7.021,2.982A.874.874,0,0,0,6.33,1.958l-2.8-.544A4.964,4.964,0,0,0,2.915-.042L6.58.671A2.185,2.185,0,0,1,8.308,3.232L5.973,15.242A2.188,2.188,0,0,1,3.831,17.01Z" transform="translate(11.652 2.763)" fill="#0f1213"/>
    <path id="icon-c2_sel_减去_13" data-name="减去 13" d="M10.83,18.785H4a4,4,0,0,1-4-4V4A4,4,0,0,1,4,0h6.83a4,4,0,0,1,4,4V14.784A4,4,0,0,1,10.83,18.785ZM6.944,12.156v0l-.9,2.139H8.782l-.9-2.142a2.6,2.6,0,0,0,1.534.475l.136,0a2.358,2.358,0,0,0,1.6-.695,2.243,2.243,0,0,0,.715-1.62A3.781,3.781,0,0,0,10.845,7.92a28.085,28.085,0,0,0-2.787-2.7l-.63-.541-.021.016-.022-.017-.613.54-.027.024A28.173,28.173,0,0,0,3.983,7.92a3.785,3.785,0,0,0-1.019,2.394,2.239,2.239,0,0,0,.714,1.62,2.35,2.35,0,0,0,1.6.695l.136,0a2.611,2.611,0,0,0,1.532-.473ZM5.4,11.584l-.084,0a1.311,1.311,0,0,1-.907-.4,1.205,1.205,0,0,1-.4-.872,2.8,2.8,0,0,1,.779-1.726A27.5,27.5,0,0,1,7.414,6.046l.019.016a27.149,27.149,0,0,1,2.6,2.526,2.8,2.8,0,0,1,.78,1.726,1.206,1.206,0,0,1-.4.873,1.306,1.306,0,0,1-.907.4l-.08,0a1.635,1.635,0,0,1-1.147-.443,4.731,4.731,0,0,1-.467-.471l-.4-.485-.4.485a4.753,4.753,0,0,1-.465.471A1.632,1.632,0,0,1,5.4,11.584Z" transform="translate(0.494 0.369)" fill="#0f1213"/>
  </g>
</symbol><symbol xmlns="http://www.w3.org/2000/svg" viewBox="0 0 28 27.918" id="icon-c32"><path class="b" d="M21.34,26.337a16.2,16.2,0,0,0-9.6-3.309A16.631,16.631,0,0,0,1.985,26.34a1.25,1.25,0,0,1-.738.246l-.05,0a1.244,1.244,0,0,1-.973-.465l-.01-.013A1.164,1.164,0,0,1,.6,24.439,19.743,19.743,0,0,1,6.7,21.36,11.168,11.168,0,0,1,.4,11.3a11.262,11.262,0,1,1,22.525,0,11.088,11.088,0,0,1-2.12,6.55,11.211,11.211,0,0,1-4.174,3.509,19.738,19.738,0,0,1,6.1,3.079,1.4,1.4,0,0,1,.587.892,1.027,1.027,0,0,1-.2.778l-.009.012a1.271,1.271,0,0,1-1.769.218ZM2.8,11.3a8.977,8.977,0,0,0,8.941,8.774,8.8,8.8,0,0,0,6.209-15.04,8.664,8.664,0,0,0-6.209-2.648A9.048,9.048,0,0,0,2.8,11.3Z" transform="translate(2.8 0)"/><path class="b" d="M9.8,19.6a9.8,9.8,0,1,1,9.8-9.8A9.811,9.811,0,0,1,9.8,19.6ZM10.312,5.04a4.885,4.885,0,0,0-4.89,4.91,4.649,4.649,0,0,0,1.441,3.413A5.029,5.029,0,0,0,10.347,14.7a4.78,4.78,0,0,0,3.412-1.347,4.749,4.749,0,0,0,1.351-3.4,5,5,0,0,0-1.341-3.471A4.667,4.667,0,0,0,10.351,5.04Zm-.175,6.953h0a2,2,0,0,1-2-2.034V9.95a2.13,2.13,0,0,1,2.046-2.2h.163a2.123,2.123,0,1,1-.163,4.244h-.048Z" transform="translate(4.199 1.359)"/></symbol><symbol xmlns="http://www.w3.org/2000/svg" viewBox="0 0 20 20" id="icon-c32_sel">
  <rect id="icon-c32_sel_矩形_1235" data-name="矩形 1235" width="20" height="20" fill="none"/>
  <circle id="icon-c32_sel_椭圆_22" data-name="椭圆 22" cx="6.429" cy="6.429" r="6.429" transform="translate(3.571 1.429)" fill="#fff"/>
  <path id="icon-c32_sel_路径_150" data-name="路径 150" d="M15.243,18.812a11.572,11.572,0,0,0-6.86-2.364,11.88,11.88,0,0,0-6.965,2.366.893.893,0,0,1-.527.176H.855a.889.889,0,0,1-.695-.332l-.007-.01a.831.831,0,0,1,.275-1.193,14.1,14.1,0,0,1,4.356-2.2,7.977,7.977,0,0,1-4.5-7.185,8.045,8.045,0,1,1,16.089,0,7.92,7.92,0,0,1-1.514,4.679,8.008,8.008,0,0,1-2.981,2.507,14.1,14.1,0,0,1,4.356,2.2,1,1,0,0,1,.419.637.734.734,0,0,1-.144.556l-.006.008a.908.908,0,0,1-1.264.156ZM2,8.072a6.412,6.412,0,0,0,6.387,6.267A6.288,6.288,0,0,0,12.818,3.6,6.188,6.188,0,0,0,8.383,1.7,6.463,6.463,0,0,0,2,8.072Z" transform="translate(2)" fill="#0f1213"/>
  <path id="icon-c32_sel_减去_11" data-name="减去 11" d="M7,14a7,7,0,1,1,7-7A7.008,7.008,0,0,1,7,14ZM7.366,3.6A3.489,3.489,0,0,0,3.873,7.107,3.321,3.321,0,0,0,4.9,9.545a3.592,3.592,0,0,0,2.488.955,3.415,3.415,0,0,0,2.437-.962,3.392,3.392,0,0,0,.965-2.431,3.568,3.568,0,0,0-.958-2.48A3.334,3.334,0,0,0,7.393,3.6ZM7.241,8.566h0A1.428,1.428,0,0,1,5.813,7.114V7.107A1.522,1.522,0,0,1,7.275,5.535h.116a1.517,1.517,0,1,1-.116,3.031H7.241Z" transform="translate(3 0.971)" fill="#0f1213"/>
</symbol><symbol xmlns="http://www.w3.org/2000/svg" viewBox="0 0 28 28" id="icon-c4"><path class="a" d="M13.3,0A13.3,13.3,0,1,0,26.6,13.3,13.3,13.3,0,0,0,13.3,0ZM10.642,21.946a7.98,7.98,0,1,1,7.982-7.979A7.982,7.982,0,0,1,10.642,21.946ZM19.785,7.814C18.355,6.384,17.625,4.8,18.157,4.277s2.107.2,3.537,1.628,2.161,3.014,1.628,3.537S21.216,9.245,19.785,7.814Z" transform="translate(0 1.4)"/><path class="a" d="M283.2,354.43a2.33,2.33,0,0,0,1.895-2.194c-.12-1.5-1.224-2.334-3.325-2.493q-3.205.3-3.5,3.086a2.619,2.619,0,0,0,1.784,2.661,2.8,2.8,0,0,0-2.083,2.493c.12,1.544,1.284,2.355,3.5,2.427q3.865-.108,4.037-3.026.054-2-2.313-2.954Zm-1.431-4.1c1.11.039,1.682.664,1.724,1.9a2.146,2.146,0,0,1-.892,1.844q-2.433-1.019-2.313-2.322a1.452,1.452,0,0,1,1.475-1.425Zm-.174,9.61a1.988,1.988,0,0,1-2-2.194,2.094,2.094,0,0,1,1.071-1.844.531.531,0,0,1,.293.12.172.172,0,0,0,.12.06l.97.533c.871.44,1.284.991,1.245,1.664A1.693,1.693,0,0,1,281.6,359.943Z" transform="translate(-270.752 -339.257)"/></symbol><symbol xmlns="http://www.w3.org/2000/svg" viewBox="0 0 20 20" id="icon-c4_sel">
  <g id="icon-c4_sel_组_3797" data-name="组 3797" transform="translate(0 -1)">
    <circle id="icon-c4_sel_椭圆_23" data-name="椭圆 23" cx="9.023" cy="9.023" r="9.023" transform="translate(1.504 1.514)" fill="#fff"/>
    <path id="icon-c4_sel_路径_2198" data-name="路径 2198" d="M10,0A10,10,0,1,0,20,10,10,10,0,0,0,10,0ZM8,16.5a6,6,0,1,1,6-6A6,6,0,0,1,8,16.5ZM14.876,5.875C13.8,4.8,13.252,3.609,13.652,3.216s1.584.151,2.66,1.224,1.625,2.266,1.224,2.66S15.952,6.951,14.876,5.875Z" transform="translate(0 1)" fill="#0f1213"/>
    <path id="icon-c4_sel_路径_2199" data-name="路径 2199" d="M281.9,353.267a1.752,1.752,0,0,0,1.424-1.649c-.09-1.13-.92-1.755-2.5-1.874q-2.41.226-2.63,2.32a1.969,1.969,0,0,0,1.341,2,2.1,2.1,0,0,0-1.566,1.874c.09,1.161.965,1.771,2.635,1.825q2.906-.081,3.036-2.275a2.3,2.3,0,0,0-1.739-2.221Zm-1.076-3.081c.835.029,1.265.5,1.3,1.431a1.614,1.614,0,0,1-.671,1.386q-1.829-.766-1.739-1.746a1.092,1.092,0,0,1,1.109-1.071Zm-.131,7.225a1.5,1.5,0,0,1-1.5-1.649,1.575,1.575,0,0,1,.806-1.386.4.4,0,0,1,.22.09.13.13,0,0,0,.09.045l.729.4c.655.331.965.745.936,1.251A1.273,1.273,0,0,1,280.7,357.412Z" transform="translate(-272.544 -341.912)" fill="#0f1213"/>
  </g>
  <rect id="icon-c4_sel_矩形_1264" data-name="矩形 1264" width="20" height="20" transform="translate(0 0)" fill="none"/>
</symbol><symbol xmlns="http://www.w3.org/2000/svg" viewBox="0 0 28 28" id="icon-c64"><path class="a" d="M78,92A14,14,0,1,0,64,78,14,14,0,0,0,78,92Zm-.6-18.722a1.081,1.081,0,0,1,1.2,0l3.7,2.691a1.085,1.085,0,0,1,.372,1.144l-1.416,4.353a1.083,1.083,0,0,1-.972.706H75.713a1.08,1.08,0,0,1-.972-.706l-1.416-4.353a1.079,1.079,0,0,1,.372-1.144Zm-8.916-3.425a12.561,12.561,0,0,1,4.766-3.447l-.3.556a.724.724,0,0,0,.216.984l4.116,2.369a1.757,1.757,0,0,0,1.447,0l4.109-2.366a.725.725,0,0,0,.213-.984l-.3-.559a12.589,12.589,0,0,1,4.856,3.55l-.337-.062a.72.72,0,0,0-.869.509l-.978,4.647a1.745,1.745,0,0,0,.447,1.375L89.387,79.6a.721.721,0,0,0,1-.1l.059-.063a12.45,12.45,0,0,1-2.009,5.494l-.172-1.119a.725.725,0,0,0-.766-.656l-4.713.588a1.745,1.745,0,0,0-1.153.869l-1.859,4.363a.724.724,0,0,0,.422.916l.669.306a12.659,12.659,0,0,1-5.934-.05l.628-.287a.724.724,0,0,0,.422-.916l-1.859-4.362a1.745,1.745,0,0,0-1.153-.869l-4.716-.587a.725.725,0,0,0-.766.656l-.128.834a12.485,12.485,0,0,1-1.844-5.553l.3.312a.727.727,0,0,0,1,.1L70.341,76.3a1.757,1.757,0,0,0,.447-1.375l-.981-4.644a.722.722,0,0,0-.869-.509Z" transform="translate(-64 -64)"/></symbol><symbol xmlns="http://www.w3.org/2000/svg" viewBox="0 0 20 20" id="icon-c64_sel">
  <circle id="icon-c64_sel_椭圆_15" data-name="椭圆 15" cx="9.091" cy="9.091" r="9.091" transform="translate(0.909 0.909)" fill="#fff"/>
  <path id="icon-c64_sel_足球" d="M74,84A10,10,0,1,0,64,74,10,10,0,0,0,74,84Zm-.429-13.373a.772.772,0,0,1,.859,0l2.643,1.922a.775.775,0,0,1,.266.817l-1.011,3.109a.773.773,0,0,1-.694.5H72.366a.772.772,0,0,1-.694-.5l-1.011-3.109a.771.771,0,0,1,.266-.817ZM67.2,68.181a8.972,8.972,0,0,1,3.4-2.462l-.214.4a.517.517,0,0,0,.154.7l2.94,1.692a1.255,1.255,0,0,0,1.033,0l2.935-1.69a.518.518,0,0,0,.152-.7l-.217-.4a8.992,8.992,0,0,1,3.469,2.536l-.241-.045a.515.515,0,0,0-.621.364l-.7,3.319a1.247,1.247,0,0,0,.319.982l2.516,2.27a.515.515,0,0,0,.717-.074l.042-.045a8.893,8.893,0,0,1-1.435,3.924l-.123-.8a.518.518,0,0,0-.547-.469l-3.366.42a1.246,1.246,0,0,0-.824.621L75.27,81.839a.517.517,0,0,0,.3.654l.478.219a9.042,9.042,0,0,1-4.239-.036l.449-.205a.517.517,0,0,0,.3-.654L71.232,78.7a1.246,1.246,0,0,0-.824-.621l-3.368-.42a.518.518,0,0,0-.547.469l-.092.6a8.918,8.918,0,0,1-1.317-3.967l.212.223a.519.519,0,0,0,.717.074l2.516-2.27a1.255,1.255,0,0,0,.319-.982l-.7-3.317a.516.516,0,0,0-.621-.364Z" transform="translate(-64 -64)" fill="#0f1213"/>
</symbol><symbol xmlns="http://www.w3.org/2000/svg" viewBox="0 0 28 28" id="icon-c8"><path class="b" d="M36.937,9.911a1.969,1.969,0,1,0-1.95-1.969,1.969,1.969,0,0,0,1.95,1.969Zm13.985,1.715a1.543,1.543,0,0,0-.309-.928c-.106-.141-.243-.313-.427-.532a25.856,25.856,0,0,0-3.348-3.222l1.973-2.161a.6.6,0,0,0,.176-.427.615.615,0,0,0-.266-.5h0l-.031-.023c-3.226-1.875-8.292-1.609-9.62-1.5A29.724,29.724,0,0,0,28.8.151h-.07a1.515,1.515,0,0,0-1.386.92l-.039.106a1.041,1.041,0,0,0-.035.125,32.586,32.586,0,0,0-.775,17.548,29.216,29.216,0,0,0,2.572,7.028h0a1.5,1.5,0,0,0,1.135.771h.07c.736.067,1.464.1,2.169.1A18.024,18.024,0,0,0,46.83,20.107a19.024,19.024,0,0,0,4.06-8.179.2.2,0,0,0,.008-.055,1.591,1.591,0,0,0,.023-.254ZM36.937,5.233a2.705,2.705,0,1,1-2.678,2.705,2.705,2.705,0,0,1,2.678-2.705ZM27.489,18.09l-.012-.047a14.279,14.279,0,0,0,3.015-.454l-1.175,2.545Zm4.949,7.517c-.2,0-.4,0-.607-.008-.442-.012-.9-.039-1.355-.086a.65.65,0,0,1-.5-.345l-.2-.4h.274A8.846,8.846,0,0,0,36.9,22.115c3.093-3.375,2.611-8.8,2.474-9.906h0a.56.56,0,0,0-.556-.505.572.572,0,0,0-.388.157l-.008.012-.012.012c-.779.787-5.278,5.023-11.119,5.2a31.369,31.369,0,0,1,.337-12.862.83.83,0,0,1,.814-.673.8.8,0,0,1,.274.047l.039.02.023.012a34.963,34.963,0,0,1,5.07,2.584,3.571,3.571,0,0,0,3.093,5.3,3.492,3.492,0,0,0,2.517-1.073,34.07,34.07,0,0,1,6.6,8.2.642.642,0,0,1-.1.728A16.93,16.93,0,0,1,32.442,25.6Zm-.689-4.538,2.5,1.868a8.715,8.715,0,0,1-3.234.838l.736-2.705Zm-.368-3.731a17.74,17.74,0,0,0,3.007-1.292L33.9,19.03Zm3.676-1.668a21.226,21.226,0,0,0,2.474-1.707l.055,2.725Zm2.725,3.136a7.952,7.952,0,0,1-1.57,2.666l-.227.235-.576-2.85Zm0,0" transform="translate(-24.242 1.249)"/></symbol><symbol xmlns="http://www.w3.org/2000/svg" viewBox="0 0 20 20" id="icon-c8_sel">
  <rect id="icon-c8_sel_矩形_1264" data-name="矩形 1264" width="20" height="20" fill="none"/>
  <path id="icon-c8_sel_路径_2315" data-name="路径 2315" d="M17.631,13.289,16.6,16.056S12.72,21.146,4.55,20.431c.089-.045-3.884-9.643-1.027-17.1-.089.268,6.25,1.116,6.25,1.116l4.375,1.027Z" transform="translate(-0.711 -0.952)" fill="#fff"/>
  <path id="icon-c8_sel_捕鱼" d="M33.71,7.123a1.407,1.407,0,1,0-1.393-1.407A1.407,1.407,0,0,0,33.71,7.123ZM43.7,8.347a1.1,1.1,0,0,0-.221-.663c-.076-.1-.173-.224-.3-.38A18.469,18.469,0,0,0,40.782,5l1.409-1.544a.431.431,0,0,0,.126-.3.439.439,0,0,0-.19-.358h0L42.1,2.779c-2.3-1.34-5.923-1.149-6.871-1.068A21.232,21.232,0,0,0,27.9.151h-.05a1.082,1.082,0,0,0-.99.657l-.028.076A.744.744,0,0,0,26.8.973a23.276,23.276,0,0,0-.554,12.534,20.868,20.868,0,0,0,1.837,5.02h0a1.074,1.074,0,0,0,.811.551h.05c.526.048,1.046.073,1.549.073A12.874,12.874,0,0,0,40.777,14.4a13.589,13.589,0,0,0,2.9-5.842.139.139,0,0,0,.006-.039,1.135,1.135,0,0,0,.017-.182ZM33.71,3.781A1.932,1.932,0,1,1,31.8,5.713,1.932,1.932,0,0,1,33.71,3.781Zm-6.748,9.184-.008-.034a10.2,10.2,0,0,0,2.153-.324l-.839,1.818ZM30.5,18.334c-.143,0-.288,0-.433-.006-.316-.008-.643-.028-.968-.062a.464.464,0,0,1-.355-.246l-.145-.288h.2a6.319,6.319,0,0,0,4.894-1.893c2.209-2.411,1.865-6.284,1.767-7.075h0a.4.4,0,0,0-.4-.361.408.408,0,0,0-.277.112l-.006.008-.008.008c-.557.562-3.77,3.588-7.942,3.711a22.406,22.406,0,0,1,.24-9.187.593.593,0,0,1,.582-.481.57.57,0,0,1,.2.034l.028.014.017.008A24.974,24.974,0,0,1,31.5,4.477a2.55,2.55,0,0,0,2.209,3.784,2.5,2.5,0,0,0,1.8-.766,24.336,24.336,0,0,1,4.715,5.859.459.459,0,0,1-.07.52A12.093,12.093,0,0,1,30.5,18.331ZM30,15.093l1.787,1.334a6.225,6.225,0,0,1-2.31.6l.526-1.932Zm-.263-2.665a12.672,12.672,0,0,0,2.148-.923l-.347,2.131Zm2.626-1.191a15.161,15.161,0,0,0,1.767-1.219l.039,1.946Zm1.946,2.24a5.68,5.68,0,0,1-1.121,1.9l-.162.168-.411-2.036Zm0,0" transform="translate(-24.642 0.849)" fill="#0f1213"/>
</symbol><symbol xmlns="http://www.w3.org/2000/svg" xmlns:xlink="http://www.w3.org/1999/xlink" viewBox="0 0 24 25" id="icon-certified">
    <title>编组 9</title>
    <g id="icon-certified_页面-1" stroke="none" stroke-width="1" fill-rule="evenodd">
        <g id="icon-certified_用户认证" transform="translate(-2926.000000, -946.000000)">
            <g id="icon-certified_编组-9" transform="translate(2926.000000, 946.000000)">
                <path d="M11.9678019,0 C14.0834041,1.39984835 15.7271959,2.29311216 16.8991773,2.67979142 C18.0711586,3.06647068 19.910887,3.32254683 22.4183623,3.44801988 L22.4183623,13.8485205 C22.4183623,15.5294199 21.4281788,17.4959395 19.4478118,19.7480792 C17.4674448,22.000219 14.9741081,23.4341474 11.9678019,24.0498644 L11.9678019,24.0640596 C8.96149559,23.4483425 6.46815894,22.0144141 4.48779192,19.7622744 C2.50742489,17.5101346 1.51724138,15.5436151 1.51724138,13.8627156 L1.51724138,3.46221503 C4.02471672,3.33674198 5.86444506,3.08066583 7.03642641,2.69398656 C8.20840776,2.3073073 9.85219958,1.4140435 11.9678019,0.0141951462 L11.9678019,0 Z M19.2895732,13.066787 C18.9985289,12.7654019 18.51827,12.757019 18.2168849,13.0480632 L14.1983734,16.9280345 L12.5405335,15.0864645 C12.2601847,14.7751056 11.780511,14.749967 11.4691521,15.0303157 C11.1577933,15.3106645 11.1326547,15.7903383 11.4130034,16.1016971 L13.5357626,18.45926 C13.5957615,18.5258955 13.6648899,18.5794214 13.7391079,18.6189271 C14.0310491,18.8277132 14.4393277,18.8052215 14.7067623,18.5469629 L19.2708493,14.1394753 C19.5722344,13.8484311 19.5806174,13.3681722 19.2895732,13.066787 Z M11.2781467,5.93103448 C9.37371651,5.93103448 7.82987082,7.47488017 7.82987082,9.37931034 C7.82987082,10.4924951 8.35735361,11.4824797 9.17594315,12.1111453 C8.37019104,12.429774 7.72614673,12.8931868 7.24381019,13.5013838 C6.39721118,14.5688936 5.98291998,15.7276576 6.00093657,16.9776759 C6.00093657,17.4980742 6.22217007,17.7582734 6.66463707,17.7582734 C7.10710407,17.7582734 7.37556089,17.5340169 7.47000753,17.0855039 C7.56989472,15.8382274 7.91779512,14.9063973 8.51370871,14.2900138 C9.1096223,13.6736303 10.0311016,13.3054669 11.2781467,13.1855237 C12.0451745,13.2489125 12.6055368,13.3541992 12.9592338,13.5013838 C13.3129307,13.6485684 13.7041345,13.9114451 14.1328451,14.2900138 L15.2025557,13.3382232 C14.5996838,12.7943358 14.0697366,12.4043123 13.612714,12.1681529 C13.5544493,12.1380455 13.4909647,12.1088987 13.4210582,12.0810638 C14.2164112,11.4493786 14.7264225,10.4739043 14.7264225,9.37931034 C14.7264225,7.47488017 13.1825768,5.93103448 11.2781467,5.93103448 Z M11.2781467,7.44827586 C12.3446276,7.44827586 13.2091812,8.31282945 13.2091812,9.37931034 C13.2091812,10.4457912 12.3446276,11.3103448 11.2781467,11.3103448 C10.2116658,11.3103448 9.3471122,10.4457912 9.3471122,9.37931034 C9.3471122,8.31282945 10.2116658,7.44827586 11.2781467,7.44827586 Z" id="icon-certified_形状结合"/>
            </g>
        </g>
    </g>
</symbol><symbol xmlns="http://www.w3.org/2000/svg" viewBox="0 0 28 28.001" id="icon-chips"><g transform="translate(0)"><g transform="translate(0 0)"><path class="a" d="M4.022,13.978A10.014,10.014,0,0,1,4.26,11.8a.748.748,0,0,0-.514-.882L1.336,10.2a.746.746,0,0,0-.941.54,14.117,14.117,0,0,0,0,6.529.747.747,0,0,0,.941.54l2.421-.727a.75.75,0,0,0,.513-.885,10.017,10.017,0,0,1-.247-2.216Zm.569,5.095-2.231,1.2a.747.747,0,0,0-.283,1.048A14.073,14.073,0,0,0,6.69,25.938a.747.747,0,0,0,1.048-.283l1.206-2.239a.75.75,0,0,0-.261-.988,10.038,10.038,0,0,1-3.105-3.095.748.748,0,0,0-.988-.261Zm9.421,4.9a10,10,0,0,1-2.19-.241.75.75,0,0,0-.883.513l-.732,2.438a.747.747,0,0,0,.54.941,14.116,14.116,0,0,0,6.528,0,.747.747,0,0,0,.54-.941l-.732-2.438a.75.75,0,0,0-.883-.513,10.005,10.005,0,0,1-2.19.241ZM8.925,4.552,7.739,2.35A.747.747,0,0,0,6.69,2.066,14.072,14.072,0,0,0,2.076,6.68a.747.747,0,0,0,.283,1.048l2.21,1.19a.748.748,0,0,0,.988-.262A10.041,10.041,0,0,1,8.663,5.539a.748.748,0,0,0,.262-.986ZM26.688,10.2l-2.411.724a.75.75,0,0,0-.514.882,10.055,10.055,0,0,1-.009,4.392.75.75,0,0,0,.513.885l2.421.727a.747.747,0,0,0,.941-.54,14.117,14.117,0,0,0,0-6.529.746.746,0,0,0-.941-.54ZM19.079,23.415l1.2,2.238a.747.747,0,0,0,1.048.284,14.073,14.073,0,0,0,4.616-4.615.747.747,0,0,0-.283-1.048l-2.233-1.2a.748.748,0,0,0-.986.259,10.038,10.038,0,0,1-3.105,3.095.748.748,0,0,0-.262.989Zm4.375-14.5,2.21-1.19a.747.747,0,0,0,.285-1.048,14.072,14.072,0,0,0-4.616-4.614.747.747,0,0,0-1.048.283L19.1,4.553a.748.748,0,0,0,.26.986,10.041,10.041,0,0,1,3.108,3.118.748.748,0,0,0,.987.262Zm-9.442-4.93a10.022,10.022,0,0,1,2.2.244A.75.75,0,0,0,17.1,3.72l.719-2.394a.747.747,0,0,0-.54-.941,14.1,14.1,0,0,0-6.528,0,.747.747,0,0,0-.54.941l.719,2.394a.75.75,0,0,0,.884.513,10.022,10.022,0,0,1,2.2-.244Z" transform="translate(-0.012 -0.002)"/><path class="a" d="M183.8,194.6a8.994,8.994,0,1,0,8.993-8.949A8.971,8.971,0,0,0,183.8,194.6Z" transform="translate(-178.77 -180.573)"/></g></g></symbol><symbol xmlns="http://www.w3.org/2000/svg" viewBox="0 0 20 20" id="icon-chips_sel">
  <circle id="icon-chips_sel_椭圆_18" data-name="椭圆 18" cx="9.091" cy="9.091" r="9.091" transform="translate(0.909 0.909)" fill="#fff"/>
  <path id="icon-chips_sel_椭圆_18_-_轮廓" data-name="椭圆 18 - 轮廓" d="M10,.714A9.286,9.286,0,0,0,3.434,16.566,9.286,9.286,0,0,0,16.566,3.434,9.225,9.225,0,0,0,10,.714M10,0A10,10,0,1,1,0,10,10,10,0,0,1,10,0Z" transform="translate(0 0)" fill="#0f1213"/>
  <g id="icon-chips_sel_组_3408" data-name="组 3408" transform="translate(0)">
    <path id="icon-chips_sel_路径_2184" data-name="路径 2184" d="M2.876,9.985a7.153,7.153,0,0,1,.17-1.554A.534.534,0,0,0,2.68,7.8L.957,7.285a.533.533,0,0,0-.672.386,10.084,10.084,0,0,0,0,4.663.533.533,0,0,0,.672.386L2.686,12.2a.536.536,0,0,0,.366-.632,7.155,7.155,0,0,1-.176-1.583Zm.406,3.639-1.594.858a.534.534,0,0,0-.2.749,10.052,10.052,0,0,0,3.3,3.3.534.534,0,0,0,.749-.2l.861-1.6a.536.536,0,0,0-.187-.705A7.17,7.17,0,0,1,3.988,13.81a.535.535,0,0,0-.705-.186Zm6.729,3.5a7.146,7.146,0,0,1-1.564-.172.536.536,0,0,0-.631.367l-.523,1.741a.534.534,0,0,0,.386.672,10.083,10.083,0,0,0,4.663,0,.534.534,0,0,0,.386-.672l-.523-1.741a.536.536,0,0,0-.631-.367,7.146,7.146,0,0,1-1.564.172ZM6.378,3.252,5.531,1.679a.534.534,0,0,0-.749-.2,10.051,10.051,0,0,0-3.3,3.3.533.533,0,0,0,.2.749l1.578.85a.534.534,0,0,0,.705-.187A7.172,7.172,0,0,1,6.192,3.957a.534.534,0,0,0,.187-.7ZM19.066,7.284,17.344,7.8a.536.536,0,0,0-.367.63,7.182,7.182,0,0,1-.006,3.137.536.536,0,0,0,.366.632l1.729.519a.533.533,0,0,0,.672-.386,10.084,10.084,0,0,0,0-4.663.533.533,0,0,0-.672-.386Zm-5.435,9.441.861,1.6a.534.534,0,0,0,.749.2,10.052,10.052,0,0,0,3.3-3.3.534.534,0,0,0-.2-.749l-1.595-.858a.534.534,0,0,0-.7.185,7.17,7.17,0,0,1-2.218,2.211.535.535,0,0,0-.187.706ZM16.756,6.371l1.578-.85a.533.533,0,0,0,.2-.749,10.051,10.051,0,0,0-3.3-3.3.534.534,0,0,0-.749.2l-.847,1.574a.534.534,0,0,0,.186.7,7.172,7.172,0,0,1,2.22,2.227.534.534,0,0,0,.705.187ZM10.011,2.849a7.159,7.159,0,0,1,1.573.174.536.536,0,0,0,.631-.366l.513-1.71a.533.533,0,0,0-.386-.672,10.075,10.075,0,0,0-4.663,0,.533.533,0,0,0-.386.672l.514,1.71a.536.536,0,0,0,.631.366,7.159,7.159,0,0,1,1.572-.174Z" transform="translate(-0.012 -0.002)" fill="#0f1213"/>
    <path id="icon-chips_sel_路径_2185" data-name="路径 2185" d="M183.8,192.042a6.424,6.424,0,1,0,6.424-6.392A6.408,6.408,0,0,0,183.8,192.042Z" transform="translate(-180.206 -182.023)" fill="#0f1213"/>
  </g>
</symbol><symbol xmlns="http://www.w3.org/2000/svg" viewBox="0 0 14 14" id="icon-clear">
    <path data-name="清除" d="M74.83 81.83a7 7 0 1 1 7-7 7 7 0 0 1-7 7zm3.554-9.792-.761-.761-2.793 2.791-2.792-2.792-.761.761 2.792 2.792-2.792 2.792.761.762 2.792-2.792 2.792 2.792.761-.762-2.792-2.791z" transform="translate(-67.83 -67.83)" style=""/>
</symbol><symbol xmlns="http://www.w3.org/2000/svg" xmlns:xlink="http://www.w3.org/1999/xlink" viewBox="0 0 24 24" id="icon-close_circle">
    <title>关闭2</title>
    <g id="icon-close_circle_页面-1" stroke="none" stroke-width="1" fill-rule="evenodd">
        <g id="icon-close_circle_关闭2" fill-rule="nonzero">
            <path d="M12,24 C5.38287096,24 0,18.617129 0,12 C0,5.38287096 5.38287096,0 12,0 C18.617129,0 24,5.38287096 24,12 C24,18.617129 18.617129,24 12,24 Z M12,1.72198053 C6.332559,1.72198053 1.72198053,6.33255897 1.72198053,12 C1.72198053,17.6665656 6.33255897,22.2780195 12,22.2780195 C17.6665656,22.2780195 22.2780195,17.6666116 22.2780195,12 C22.2780195,6.332559 17.6665656,1.72198053 12,1.72198053 Z" id="icon-close_circle_形状"/>
            <path d="M13.2068424,12.0368614 L16.9131185,8.37085645 C17.2499856,8.03827441 17.2525659,7.49572061 16.9199839,7.15885345 C16.5874019,6.82198629 16.0439726,6.81940599 15.7079809,7.151988 L11.9965443,10.8222781 L8.34168988,7.15627313 C8.00652755,6.82111079 7.46484921,6.81940596 7.12968688,7.15456829 C6.79452455,7.48885516 6.79369519,8.03140896 7.12798205,8.36657129 L10.7776758,12.0274157 L7.09794003,15.6677098 C6.76107287,16.0011212 6.75849257,16.5428456 7.09107458,16.8797128 C7.25907043,17.0494135 7.4793634,17.1342869 7.70048577,17.1342869 C7.91819845,17.1342869 8.13591112,17.0511644 8.30307758,16.8865782 L11.9879279,13.241999 L15.7027742,16.9688713 C15.8699407,17.1368672 16.0893582,17.2208651 16.3096512,17.2208651 C16.5290687,17.2208651 16.7476569,17.1368672 16.9147772,16.9705762 C17.2499396,16.6362893 17.2507689,16.0945649 16.9164821,15.7585732 L13.2068424,12.0368614 Z" id="icon-close_circle_路径"/>
        </g>
    </g>
</symbol><symbol xmlns="http://www.w3.org/2000/svg" viewBox="0 0 23.998 23.996" id="icon-coin">
  <g id="icon-coin_组_3656" data-name="组 3656">
    <rect id="icon-coin_矩形_1312" data-name="矩形 1312" width="23.996" height="23.996" fill="none"/>
    <path id="icon-coin_减去_29" data-name="减去 29" d="M12,23.994a12,12,0,1,1,8.482-3.514A12.013,12.013,0,0,1,12,23.994ZM5.637,6.9h0v6.837A4.749,4.749,0,0,0,6.8,17.152a4.573,4.573,0,0,0,3.406,1.2,4.576,4.576,0,0,0,3.428-1.223,4.717,4.717,0,0,0,1.15-3.4V7.622a2.015,2.015,0,0,1,.98.561,3.141,3.141,0,0,1,.586,2.058v6.851h2.012V10.256a4.753,4.753,0,0,0-1.148-3.4,4.582,4.582,0,0,0-3.428-1.223,4.58,4.58,0,0,0-3.412,1.209,4.746,4.746,0,0,0-1.162,3.409v6.121a1.939,1.939,0,0,1-.982-.566,3.066,3.066,0,0,1-.584-2.058V6.9H5.637Zm5.592,9.467h0V10.242a3.031,3.031,0,0,1,.584-2.054,1.892,1.892,0,0,1,.963-.561v6.125a3.15,3.15,0,0,1-.584,2.058,2.026,2.026,0,0,1-.961.556Z" transform="translate(0.002 0.001)"/>
  </g>
</symbol><symbol xmlns="http://www.w3.org/2000/svg" viewBox="0 0 20 19.996" id="icon-coin_sel">
  <rect id="icon-coin_sel_矩形_1312" data-name="矩形 1312" width="19.996" height="19.996" fill="none"/>
  <ellipse id="icon-coin_sel_椭圆_52" data-name="椭圆 52" cx="9.998" cy="9.998" rx="9.998" ry="9.998" transform="translate(0.004)" fill="#0f1213"/>
  <path id="icon-coin_sel_路径_2347" data-name="路径 2347" d="M16652.973-486.4a3.959,3.959,0,0,1-.975-2.844v-5.7h1.678v5.713a2.54,2.54,0,0,0,.486,1.714,1.637,1.637,0,0,0,.818.472v-5.1a3.966,3.966,0,0,1,.971-2.844,3.808,3.808,0,0,1,2.84-1.005,3.818,3.818,0,0,1,2.855,1.017,3.957,3.957,0,0,1,.959,2.832v5.7h-1.676v-5.713a2.628,2.628,0,0,0-.486-1.714,1.708,1.708,0,0,0-.82-.468v5.1a3.95,3.95,0,0,1-.959,2.829,3.815,3.815,0,0,1-2.855,1.017A3.8,3.8,0,0,1,16652.973-486.4Zm4.172-7.471a2.531,2.531,0,0,0-.486,1.711v5.107a1.679,1.679,0,0,0,.8-.465,2.6,2.6,0,0,0,.488-1.714v-5.107A1.606,1.606,0,0,0,16657.145-493.875Z" transform="translate(-16647.299 500.697)" fill="#fff"/>
</symbol><symbol xmlns="http://www.w3.org/2000/svg" viewBox="0 0 24 24" id="icon-copy">
  <g id="icon-copy_组_3628" data-name="组 3628" transform="translate(0 0)">
    <path id="icon-copy_路径_2318" data-name="路径 2318" d="M29.569,340.81h9.195v3.474a1.888,1.888,0,0,1-1.87,1.895H24.27a1.888,1.888,0,0,1-1.87-1.895V331.495a1.888,1.888,0,0,1,1.87-1.895H27.7v9.316A1.888,1.888,0,0,0,29.569,340.81Z" transform="translate(-22.4 -322.179)"/>
    <path id="icon-copy_路径_2319" data-name="路径 2319" d="M352.364,30.695V43.484a1.888,1.888,0,0,1-1.87,1.895H337.87A1.888,1.888,0,0,1,336,43.484V30.695a1.888,1.888,0,0,1,1.87-1.895h12.623A1.888,1.888,0,0,1,352.364,30.695Z" transform="translate(-328.364 -28.8)"/>
  </g>
</symbol><symbol xmlns="http://www.w3.org/2000/svg" viewBox="0 0 22 22" id="icon-cricket">
  <rect id="icon-cricket_矩形_8413" data-name="矩形 8413" width="22" height="22" fill="none"/>
  <g id="icon-cricket_组_3892" data-name="组 3892" transform="translate(0.57 -0.379)">
    <path id="icon-cricket_减去_33" data-name="减去 33" d="M5.875,17.158a1.663,1.663,0,0,1-1.2-.5L.5,12.388A1.747,1.747,0,0,1,.5,9.95L9.76.5a1.669,1.669,0,0,1,2.392,0L16.335,4.77a1.75,1.75,0,0,1,0,2.438L7.07,16.653A1.664,1.664,0,0,1,5.875,17.158ZM7.641,4.913a.83.83,0,0,0-.6.252.873.873,0,0,0,0,1.219l3.381,3.447a.834.834,0,0,0,1.2,0,.876.876,0,0,0,0-1.219L8.238,5.166A.83.83,0,0,0,7.641,4.913ZM9.832,2.679a.831.831,0,0,0-.6.252.873.873,0,0,0,0,1.219L12.616,7.6a.835.835,0,0,0,1.2,0,.875.875,0,0,0,0-1.219L10.43,2.932A.832.832,0,0,0,9.832,2.679Z" transform="matrix(0.998, 0.07, -0.07, 0.998, 3.833, 1.832)"/>
    <path id="icon-cricket_矩形_1248" data-name="矩形 1248" d="M1.724,1.724l.029,2.988a.875.875,0,0,0,.862.862.835.835,0,0,0,.845-.845L3.431,1.74,1.724,1.724M0,0,5.121.049l.045,4.695A2.5,2.5,0,0,1,2.631,7.28,2.621,2.621,0,0,1,.045,4.695Z" transform="matrix(0.656, 0.755, -0.755, 0.656, 4.986, 13.703)"/>
    <ellipse id="icon-cricket_椭圆_8" data-name="椭圆 8" cx="3.459" cy="3.516" rx="3.459" ry="3.516" transform="translate(0.641 2)"/>
  </g>
</symbol><symbol xmlns="http://www.w3.org/2000/svg" viewBox="0 0 20 20.002" id="icon-cricket_1">
    <path data-name="矩形 8413" style="fill:none" d="M0 0h20v20H0z"/>
    <g data-name="组 3892" transform="translate(-.218 -1.35)">
        <path data-name="路径 2379" d="M2.013 17.832a28.352 28.352 0 0 1 3.417-3.25L8.1 9.748l3.333-3.5L14.847 4l4.083 5.75-10.417 8.082H6.68l-3.667 2.75s-2.413-1.082-1-2.75z" style="fill:#fff"/>
        <path data-name="联合 25" d="M8484.155 16958.467a2.623 2.623 0 0 1 .256-3.648l2.392-2.123-.4-.469a1.753 1.753 0 0 1 .171-2.436l9.9-8.775a1.658 1.658 0 0 1 2.383.17l3.878 4.545a1.75 1.75 0 0 1-.17 2.432l-9.9 8.775a1.678 1.678 0 0 1-1.23.422 1.647 1.647 0 0 1-1.153-.588l-.152-.178-2.393 2.119a2.5 2.5 0 0 1-3.58-.246zm1.362-2.35a.874.874 0 0 0-.085 1.217.831.831 0 0 0 1.191.08l2.239-1.979-1.111-1.3zm7.921-10.641a.873.873 0 0 0-.289.592.853.853 0 0 0 .2.625l3.133 3.674a.835.835 0 0 0 1.191.084.873.873 0 0 0 .085-1.217l-3.133-3.674a.814.814 0 0 0-.578-.293h-.062a.826.826 0 0 0-.547.21zm2.341-2.078a.877.877 0 0 0-.289.592.85.85 0 0 0 .2.625l3.133 3.674a.809.809 0 0 0 .579.293.828.828 0 0 0 .612-.207.875.875 0 0 0 .085-1.219l-3.132-3.672a.835.835 0 0 0-.579-.295h-.051a.852.852 0 0 0-.558.211z" transform="translate(-8482.938 -16938)" style="fill:#0f1213"/>
        <ellipse data-name="椭圆 8" cx="3.459" cy="3.516" rx="3.459" ry="3.516" transform="translate(.641 2)" style="fill:#0f1213"/>
    </g>
</symbol><symbol xmlns="http://www.w3.org/2000/svg" xmlns:xlink="http://www.w3.org/1999/xlink" viewBox="0 0 24 24" id="icon-daily_sign">
    <title>签到_副本备份</title>
    <g id="icon-daily_sign_页面-1" stroke="none" stroke-width="1" fill="none" fill-rule="evenodd">
        <g id="icon-daily_sign_签到_副本备份" fill="#5A5A5A" fill-rule="nonzero">
            <path d="M11.25,16.371 L9.129,14.25 C8.83615101,13.9569439 8.36118111,13.956776 8.06812502,14.249625 C7.77506892,14.542474 7.77490102,15.0174439 8.06774998,15.3105 L10.71975,17.9625 C11.0126249,18.2552865 11.4873751,18.2552865 11.78025,17.9625 L17.61375,12.129 C17.9068061,11.836151 17.906974,11.3611811 17.614125,11.068125 C17.321276,10.7750689 16.8463061,10.774901 16.55325,11.06775 L11.25,16.371 Z M18.7125,2.99999999 L22.5,2.99999999 C23.3284271,2.99999999 24,3.67157289 24,4.49999999 L24,22.5 C24,23.3284271 23.3284271,24 22.5,24 L1.5,24 C0.671572873,24 0,23.3284271 0,22.5 L0,4.49999999 C0,3.67157289 0.67157286,2.99999999 1.5,2.99999999 L5.28750001,2.99999999 C5.26275001,3.12149999 5.24999999,3.24675 5.24999999,3.375 L5.24999999,4.87499998 C5.24999999,5.91053389 6.08946609,6.74999999 7.125,6.74999999 C8.16053391,6.74999999 9,5.91053389 9,4.87499998 L9,3.375 C9,3.24675 8.98725,3.12149999 8.9625,2.99999999 L15.0375,2.99999999 C15.01275,3.12149999 15,3.24675 15,3.375 L15,4.87499998 C15,5.91053389 15.8394661,6.74999999 16.875,6.74999999 C17.9105339,6.74999999 18.75,5.91053389 18.75,4.87499998 L18.75,3.375 C18.75,3.24675 18.73725,3.12149999 18.7125,2.99999999 Z M7.12499998,0 C7.74632033,0 8.24999998,0.503679657 8.24999998,1.125 L8.24999998,4.87499998 C8.24999998,5.49632033 7.74632033,6 7.12499998,6 C6.50367964,6 5.99999998,5.49632033 5.99999998,4.87499998 L5.99999998,1.125 C5.99999998,0.503679657 6.50367964,0 7.12499998,0 L7.12499998,0 Z M16.875,0 C17.4963204,0 18,0.503679657 18,1.125 L18,4.87499998 C18,5.49632033 17.4963204,6 16.875,6 C16.2536797,6 15.75,5.49632033 15.75,4.87499998 L15.75,1.125 C15.75,0.503679657 16.2536797,0 16.875,0 L16.875,0 Z" id="icon-daily_sign_形状"/>
        </g>
    </g>
</symbol><symbol xmlns="http://www.w3.org/2000/svg" viewBox="0 0 28 28" id="icon-dark"><path class="b" d="M432.2,158.12a8.522,8.522,0,0,1-6.6-13.918A9.939,9.939,0,1,0,437.6,156.194,8.489,8.489,0,0,1,432.2,158.12Z" transform="translate(-413.8 -140.002)"/></symbol><symbol xmlns="http://www.w3.org/2000/svg" viewBox="0 0 16 16" id="icon-delete">
    <path d="M78.405 66.586h-2.531a.979.979 0 0 0-.091-.288l-.623-1.281a1.4 1.4 0 0 0-1.273-.717h-5.143a1.4 1.4 0 0 0-1.273.717l-.625 1.283a1.08 1.08 0 0 0-.093.288h-2.56a.9.9 0 0 0-.893.894v.493a.9.9 0 0 0 .893.894h1.389v10.54a.9.9 0 0 0 .893.894h9.635a.9.9 0 0 0 .89-.897V68.864h1.405a.9.9 0 0 0 .893-.894v-.493a.9.9 0 0 0-.893-.891zm-9.343 10.847a.58.58 0 1 1-1.161 0v-6.842a.58.58 0 1 1 1.161 0zm2.873 0a.58.58 0 1 1-1.161 0v-6.842a.58.58 0 1 1 1.161 0zm2.86 0a.58.58 0 1 1-1.161 0v-6.842a.58.58 0 1 1 1.161 0z" transform="translate(-63.3 -64.3)" style=""/>
</symbol><symbol xmlns="http://www.w3.org/2000/svg" xmlns:xlink="http://www.w3.org/1999/xlink" viewBox="0 0 23 23" id="icon-download">
   
    <g id="icon-download_页面-1" stroke="none" stroke-width="1">
        <g id="icon-download_下载1" transform="translate(-0.003906, 0.921094)">
            <path d="M11.0039062,0 C17.0811959,0 22.0078125,4.92661664 22.0078125,11.0039062 C22.0078125,17.0811959 17.0811959,22.0078125 11.0039062,22.0078125 C4.92661664,22.0078125 0,17.0811959 0,11.0039062 C0,4.92661664 4.92661664,0 11.0039062,0 Z M17.6179687,12.6890625 C17.0882813,12.6890625 16.6570312,13.1179687 16.6570312,13.65 L16.6570312,14.475 C16.6054688,14.7234375 16.40625,14.915625 16.153125,14.9554687 L5.7328125,14.9554687 C5.484375,14.9015625 5.2921875,14.7 5.2546875,14.446875 L5.2546875,13.6523437 C5.2546875,13.1226562 4.82578125,12.6914062 4.29375,12.6914062 C3.76171875,12.6914062 3.3328125,13.1203125 3.3328125,13.6523437 L3.3328125,15.4007812 C3.38671875,16.1742187 3.98671875,16.7953125 4.75078125,16.8773437 L17.1351563,16.8773437 C17.8921875,16.809375 18.496875,16.209375 18.576572,15.4546875 L18.576572,13.6523437 C18.5789062,13.1179687 18.1476563,12.6890625 17.6179687,12.6890625 Z M10.9617188,3.646875 C10.4320313,3.646875 10.0007813,4.07578125 10.0007813,4.6078125 L10,10.082 L8.803125,8.88515625 C8.428125,8.51015625 7.82109375,8.51015625 7.44609375,8.88515625 C7.07109375,9.26015625 7.07109375,9.8671875 7.44609375,10.2421875 L10.2415527,13.039451 C10.417403,13.238411 10.6745373,13.3640625 10.9617188,13.3640625 C11.2361409,13.3640625 11.4841415,13.2489397 11.6594399,13.0639968 L14.465625,10.25625 C14.840625,9.88125 14.840625,9.27421875 14.465625,8.89921875 C14.090625,8.52421875 13.4835938,8.52421875 13.1085938,8.89921875 L11.922,10.085 L11.9226563,4.60546875 C11.9226563,4.07578125 11.49375,3.646875 10.9617188,3.646875 Z" id="icon-download_形状结合"/>
        </g>
    </g>
</symbol><symbol xmlns="http://www.w3.org/2000/svg" viewBox="0 0 16 16" id="icon-edit"><path class="b" d="M-591.454-10027H-600a3,3,0,0,1-3-3v-10a3,3,0,0,1,3-3h5.774v4.5a1,1,0,0,0,1,1h4.774v7.5A3,3,0,0,1-591.454-10027Zm-2.455-9.73a.725.725,0,0,0-.514.213l-4.6,4.6-.28,1.946,1.946-.277,4.6-4.6a.726.726,0,0,0,.214-.518.718.718,0,0,0-.214-.511l-.638-.641A.725.725,0,0,0-593.909-10036.73Z" transform="translate(603.727 10043)"/><path class="b" d="M-597.727-10038.032H-601.5a1,1,0,0,1-1-1v-3.5l4.774,4.48v.018Z" transform="translate(613 10042.531)"/></symbol><symbol xmlns="http://www.w3.org/2000/svg" viewBox="0 0 24 24" id="icon-exchange">
  <g id="icon-exchange_组_3807" data-name="组 3807" transform="translate(127 -436)">
    <rect id="icon-exchange_矩形_8428" data-name="矩形 8428" width="24" height="24" transform="translate(-127 436)" fill="none"/>
    <path id="icon-exchange_路径_2378" data-name="路径 2378" d="M-115,436a12,12,0,0,0-12,12,12,12,0,0,0,12,12,12,12,0,0,0,12-12A12,12,0,0,0-115,436Zm-6,8h9.586l-2.293-2.293a1,1,0,0,1,0-1.414,1,1,0,0,1,1.414,0l4,4a1,1,0,0,1,.216.325,1,1,0,0,1,0,.764,1,1,0,0,1-.541.541A1.01,1.01,0,0,1-109,446h-12a1,1,0,0,1-1-1A1,1,0,0,1-121,444Zm12,8h-9.586l2.293,2.293a1,1,0,0,1,0,1.414A1,1,0,0,1-117,456a1,1,0,0,1-.707-.293l-4-4a1,1,0,0,1-.216-.325,1,1,0,0,1,0-.764,1,1,0,0,1,.541-.541A1.01,1.01,0,0,1-121,450h12a1,1,0,0,1,1,1A1,1,0,0,1-109,452Z" fill="currentColor"/>
  </g>
</symbol><symbol xmlns="http://www.w3.org/2000/svg" viewBox="0 0 24 24" id="icon-extension">
  <rect id="icon-extension_矩形_1312" data-name="矩形 1312" width="24" height="24" fill="none"/>
  <path id="icon-extension_自助推广" d="M61.139,7.743a1.506,1.506,0,0,1,.472-1.122,1.569,1.569,0,0,1,1.135-.459h1.607v7.167H62.746a1.569,1.569,0,0,1-1.135-.459,1.506,1.506,0,0,1-.472-1.122v-4Zm17.853-6.58A3.706,3.706,0,0,1,80.982.015a2.017,2.017,0,0,1,1.581.472,4.477,4.477,0,0,1,1.173,1.683,13.63,13.63,0,0,1,.791,2.474A24.443,24.443,0,0,1,84.986,7.5a27.91,27.91,0,0,1,.153,2.844,19.275,19.275,0,0,1-.191,2.7,16.091,16.091,0,0,1-.561,2.538,11,11,0,0,1-.867,2.079,3.931,3.931,0,0,1-1.109,1.326A1.675,1.675,0,0,1,81.1,19.3,2.751,2.751,0,0,1,79.63,18.3a5.652,5.652,0,0,0-2-1.441,17.448,17.448,0,0,0-2.755-.969,30.283,30.283,0,0,0-3.022-.638q-1.53-.242-2.806-.434t-2.13-.37q-.854-.179-.956-.434V6.035q.1-.357.8-.587a14.535,14.535,0,0,1,1.785-.434q1.084-.2,2.448-.446a25.252,25.252,0,0,0,2.78-.663,18.6,18.6,0,0,0,2.767-1.071,9.835,9.835,0,0,0,2.448-1.671ZM69.811,16.8q.128.306.306.663.153.332.408.765t.612.944q.434.612.88,1.288a7.6,7.6,0,0,1,.676,1.224,1.481,1.481,0,0,1,.14.905q-.089.357-.727.357H70.652a2.312,2.312,0,0,1-.944-.191,2.752,2.752,0,0,1-.829-.587,7.184,7.184,0,0,1-.816-1.007q-.421-.612-.905-1.454a8.122,8.122,0,0,1-.816-1.7,8.677,8.677,0,0,1-.306-1.211,2.313,2.313,0,0,1,0-.969,3.567,3.567,0,0,1,.485.1l.561.128q.332.077.765.153.434.1.778.191t.625.191q.306.1.561.2Z" transform="translate(-61.139 1)"/>
</symbol><symbol xmlns="http://www.w3.org/2000/svg" viewBox="0 0 20 20" id="icon-extension_sel">
  <rect id="icon-extension_sel_矩形_1312" data-name="矩形 1312" width="20" height="20" fill="none"/>
  <g id="icon-extension_sel_推广赚钱">
    <rect id="icon-extension_sel_矩形_1312-2" data-name="矩形 1312" width="20" height="20" transform="translate(0)" fill="none"/>
    <path id="icon-extension_sel_路径_2377" data-name="路径 2377" d="M2.644,6.057s1.318-.361,1.747-.51,0,7.2,0,7.2l-1.747-.8Z" fill="#fff"/>
    <path id="icon-extension_sel_自助推广" d="M61.139,6.425a1.247,1.247,0,0,1,.393-.931,1.31,1.31,0,0,1,.946-.381h1.339v5.948H62.478a1.31,1.31,0,0,1-.946-.381,1.247,1.247,0,0,1-.393-.931V6.429ZM76.016.965A3.091,3.091,0,0,1,77.675.012,1.686,1.686,0,0,1,78.992.4a3.715,3.715,0,0,1,.977,1.4,11.278,11.278,0,0,1,.659,2.053,20.208,20.208,0,0,1,.382,2.37,23.064,23.064,0,0,1,.128,2.36,15.928,15.928,0,0,1-.159,2.241,13.305,13.305,0,0,1-.467,2.106,9.107,9.107,0,0,1-.722,1.725,3.266,3.266,0,0,1-.924,1.1,1.4,1.4,0,0,1-1.092.26,2.293,2.293,0,0,1-1.225-.83,4.709,4.709,0,0,0-1.667-1.2,14.581,14.581,0,0,0-2.3-.8,25.328,25.328,0,0,0-2.518-.529q-1.275-.2-2.338-.36t-1.775-.307q-.712-.149-.8-.36V5.008q.083-.3.667-.487a12.154,12.154,0,0,1,1.487-.36q.9-.166,2.04-.37a21.116,21.116,0,0,0,2.317-.55,15.539,15.539,0,0,0,2.306-.889A8.2,8.2,0,0,0,76.014.965ZM68.366,13.941q.107.254.255.55.128.276.34.635t.51.783q.362.508.733,1.069a6.3,6.3,0,0,1,.563,1.016,1.225,1.225,0,0,1,.117.751q-.074.3-.606.3H69.066a1.934,1.934,0,0,1-.787-.159,2.293,2.293,0,0,1-.691-.487,5.967,5.967,0,0,1-.68-.836q-.351-.508-.754-1.207a6.728,6.728,0,0,1-.68-1.411,7.175,7.175,0,0,1-.255-1,1.912,1.912,0,0,1,0-.8,2.983,2.983,0,0,1,.4.083l.467.106q.277.064.637.127.362.083.648.159t.521.159q.255.083.467.166Z" transform="translate(-61.139 0.909)" fill="#0f1213"/>
  </g>
</symbol><symbol xmlns="http://www.w3.org/2000/svg" viewBox="0 0 20 20" id="icon-football">
    <circle data-name="椭圆 15" cx="9.091" cy="9.091" r="9.091" transform="translate(.909 .909)" style="fill:#fff"/>
    <path d="M74 84a10 10 0 1 0-10-10 10 10 0 0 0 10 10zm-.429-13.373a.772.772 0 0 1 .859 0l2.643 1.922a.775.775 0 0 1 .266.817l-1.011 3.109a.773.773 0 0 1-.694.5h-3.268a.772.772 0 0 1-.694-.5l-1.011-3.109a.771.771 0 0 1 .266-.817zM67.2 68.181a8.972 8.972 0 0 1 3.4-2.462l-.214.4a.517.517 0 0 0 .154.7l2.94 1.692a1.255 1.255 0 0 0 1.033 0l2.935-1.69a.518.518 0 0 0 .152-.7l-.217-.4a8.992 8.992 0 0 1 3.469 2.536l-.241-.045a.515.515 0 0 0-.621.364l-.7 3.319a1.247 1.247 0 0 0 .319.982l2.516 2.27a.515.515 0 0 0 .717-.074l.042-.045a8.893 8.893 0 0 1-1.435 3.924l-.123-.8a.518.518 0 0 0-.547-.469l-3.366.42a1.246 1.246 0 0 0-.824.621l-1.319 3.115a.517.517 0 0 0 .3.654l.478.219a9.042 9.042 0 0 1-4.239-.036l.449-.205a.517.517 0 0 0 .3-.654L71.232 78.7a1.246 1.246 0 0 0-.824-.621l-3.368-.42a.518.518 0 0 0-.547.469l-.092.6a8.918 8.918 0 0 1-1.317-3.967l.212.223a.519.519 0 0 0 .717.074l2.516-2.27a1.255 1.255 0 0 0 .319-.982l-.7-3.317a.516.516 0 0 0-.621-.364z" transform="translate(-64 -64)" style="fill:#0f1213"/>
</symbol><symbol xmlns="http://www.w3.org/2000/svg" viewBox="0 0 16 16" id="icon-help"><defs/><path class="a" d="M64.311,54.272a7.726,7.726,0,0,1,3.12.635,8.27,8.27,0,0,1,2.547,1.716,7.96,7.96,0,0,1,1.716,2.539,8.067,8.067,0,0,1,0,6.23,8.05,8.05,0,0,1-4.264,4.255,8.067,8.067,0,0,1-6.23,0,8.074,8.074,0,0,1-4.255-4.255,8.067,8.067,0,0,1,0-6.23,7.96,7.96,0,0,1,1.716-2.539A8.3,8.3,0,0,1,61.2,54.907,7.663,7.663,0,0,1,64.311,54.272Zm.018,13.479a1.056,1.056,0,0,0,.778-.313,1.034,1.034,0,0,0,.313-.76,1.091,1.091,0,1,0-2.181,0,1.034,1.034,0,0,0,.313.76A1.056,1.056,0,0,0,64.329,67.751Zm.912-4.4a.8.8,0,0,1,.358-.608q.375-.322.84-.715a6.356,6.356,0,0,0,.858-.885,1.946,1.946,0,0,0,.429-1.135,3.89,3.89,0,0,0-.143-1.305,2.557,2.557,0,0,0-.59-1.046,2.9,2.9,0,0,0-1.064-.7A4.126,4.126,0,0,0,64.4,56.7a3.842,3.842,0,0,0-1.815.384,3.778,3.778,0,0,0-1.171.93,3.323,3.323,0,0,0-.626,1.126,2.968,2.968,0,0,0-.161.974.85.85,0,0,0,.295.679,1.007,1.007,0,0,0,.6.223.958.958,0,0,0,.59-.179.624.624,0,0,0,.268-.545,1.4,1.4,0,0,1,.134-.527,2.53,2.53,0,0,1,.366-.6,2.1,2.1,0,0,1,.563-.483,1.424,1.424,0,0,1,.742-.2,1.946,1.946,0,0,1,1.287.4,1.164,1.164,0,0,1,.447,1.01.972.972,0,0,1-.179.563,2.711,2.711,0,0,1-.456.5q-.277.241-.59.483t-.59.5a2.749,2.749,0,0,0-.465.563,1.369,1.369,0,0,0-.206.661l.018.679a.707.707,0,0,0,.25.509.977.977,0,0,0,.661.259.923.923,0,0,0,.653-.268.738.738,0,0,0,.223-.572Z" transform="translate(-56.32 -54.272)"/></symbol><symbol xmlns="http://www.w3.org/2000/svg" xmlns:xlink="http://www.w3.org/1999/xlink" class="icon" viewBox="0 0 1024 1024" id="icon-history"><path d="M512 1023.998537A475.420846 475.420846 0 0 1 53.584592 421.85975a54.856251 54.856251 0 1 1 105.872565 29.073814A365.708343 365.708343 0 1 0 512 182.869348a361.502697 361.502697 0 0 0-169.688671 41.507897A54.856251 54.856251 0 1 1 291.477869 128.013097 475.420846 475.420846 0 1 1 512 1023.998537z" p-id="17945"/><path d="M566.856251 297.518914h-54.856251a18.285417 18.285417 0 0 0-18.285417 18.285417v224.727777a18.285417 18.285417 0 0 1-18.285417 18.285417h-169.688671a18.285417 18.285417 0 0 0-18.285418 18.285417v54.856252a18.285417 18.285417 0 0 0 18.285418 18.285417H566.856251a18.285417 18.285417 0 0 0 18.285418-18.285417V315.804331a18.285417 18.285417 0 0 0-18.285418-18.285417zM402.287497 320.375685a54.856251 54.856251 0 0 1-19.931105-3.657083l-151.403254-59.244752a54.856251 54.856251 0 0 1-31.085209-71.130272l59.244752-151.403254a54.856251 54.856251 0 0 1 102.215482 39.862209l-40.227918 100.38694 100.38694 39.313647A54.856251 54.856251 0 0 1 402.287497 320.375685z" p-id="17946"/></symbol><symbol xmlns="http://www.w3.org/2000/svg" viewBox="0 0 22 22" id="icon-home">
  <rect id="icon-home_矩形_8071" data-name="矩形 8071" width="22" height="22" fill="none"/>
  <path id="icon-home_主页_1_" data-name="主页 (1)" d="M111.043,69.908l-8.3,6.186a.006.006,0,0,0,0,.005l-.022,11.228c0,.32.151.581.472.581h5a.59.59,0,0,0,.59-.59l.022-3.78a2.252,2.252,0,1,1,4.491.006v3.784a.682.682,0,0,0,.688.579H118.9c.32,0,.449-.259.449-.579V76.1a.006.006,0,0,0,0-.005l-8.3-6.186A.007.007,0,0,0,111.043,69.908Z" transform="translate(-100.036 -67.907)"/>
</symbol><symbol xmlns="http://www.w3.org/2000/svg" viewBox="0 0 22 22" id="icon-info"><path class="b" d="M16,22H4a4,4,0,0,1-4-4V4A4,4,0,0,1,4,0H16a4,4,0,0,1,4,4V18A4,4,0,0,1,16,22ZM4.306,15.779a.868.868,0,0,0-.867.868v.068a.868.868,0,0,0,.867.868h12a.869.869,0,0,0,.868-.868v-.068a.869.869,0,0,0-.868-.868Zm0-5.672a.868.868,0,0,0-.867.868v.068a.868.868,0,0,0,.867.868h8.386a.869.869,0,0,0,.868-.868v-.068a.869.869,0,0,0-.868-.868Zm0-5.673A.868.868,0,0,0,3.44,5.3v.069a.868.868,0,0,0,.867.868H9.078a.869.869,0,0,0,.868-.868V5.3a.869.869,0,0,0-.868-.868Z" transform="translate(1)"/></symbol><symbol xmlns="http://www.w3.org/2000/svg" viewBox="0 0 18 18" id="icon-lang">
    <path data-name="语言" d="M145.83 136.83a9 9 0 1 0 9 9 9.01 9.01 0 0 0-9-9zm6.375 4.846h-2.062a10.021 10.021 0 0 0-1.2-2.787 7.658 7.658 0 0 1 3.258 2.788zm-2.913 4.154a15 15 0 0 1-.253 2.769h-6.418a15.291 15.291 0 0 1 0-5.539h6.418a15 15 0 0 1 .253 2.769zm-3.462 7.615c-1.06 0-2.2-1.317-2.867-3.461h5.737c-.674 2.144-1.81 3.461-2.87 3.461zm-2.867-11.769c.672-2.144 1.807-3.461 2.867-3.461s2.2 1.317 2.867 3.461zm-.249-2.787a10.02 10.02 0 0 0-1.2 2.787h-2.062a7.657 7.657 0 0 1 3.262-2.787zm-3.97 4.172h2.467a17.01 17.01 0 0 0 0 5.539h-2.467a7.517 7.517 0 0 1-.001-5.539zm.712 6.923h2.062a10.02 10.02 0 0 0 1.2 2.787 7.658 7.658 0 0 1-3.263-2.787zm9.491 2.787a10.021 10.021 0 0 0 1.2-2.787h2.053a7.658 7.658 0 0 1-3.254 2.787zm3.97-4.172h-2.467a17.01 17.01 0 0 0 0-5.539h2.467a7.517 7.517 0 0 1 0 5.54z" transform="translate(-136.83 -136.83)"/>
</symbol><symbol xmlns="http://www.w3.org/2000/svg" viewBox="0 0 28 28" id="icon-light"><path class="b" d="M399.444,144.588V142h-2.489v2.588a7.827,7.827,0,0,1,2.489,0Zm-6.455,1.641L391.16,144.4l-1.76,1.76,1.829,1.829A8.8,8.8,0,0,1,392.99,146.23Zm12.181,1.76L407,146.16l-1.76-1.76-1.829,1.829A8.8,8.8,0,0,1,405.17,147.989ZM389.489,153.2a8.731,8.731,0,0,1,.1-1.244H387v2.489h2.588A8.731,8.731,0,0,1,389.489,153.2Zm17.323-1.244a7.828,7.828,0,0,1,0,2.489H409.4v-2.489Zm-3.4,8.215L405.24,162l1.76-1.76-1.829-1.829A8.8,8.8,0,0,1,403.411,160.17Zm-12.181-1.76L389.4,160.24l1.76,1.76,1.829-1.829A8.8,8.8,0,0,1,391.23,158.41Zm5.726,3.4V164.4h2.489v-2.588a7.828,7.828,0,0,1-2.489,0Zm1.244-14.834a6.222,6.222,0,1,0,6.222,6.222A6.223,6.223,0,0,0,398.2,146.978Zm0,9.956a3.733,3.733,0,1,1,3.733-3.733A3.738,3.738,0,0,1,398.2,156.933Z" transform="translate(-384.2 -139.2)"/><circle class="b" cx="4.2" cy="4.2" r="4.2" transform="translate(9.8 9.8)"/></symbol><symbol xmlns="http://www.w3.org/2000/svg" viewBox="0 0 24 24" id="icon-lock">
  <g id="icon-lock_组_3631" data-name="组 3631">
    <path id="icon-lock_锁-2" data-name="锁" d="M-2574.4,24a1.679,1.679,0,0,1-1.6-1.742V11.628a1.68,1.68,0,0,1,1.6-1.742h.854V6.966A6.87,6.87,0,0,1-2566.46,0a6.87,6.87,0,0,1,7.081,6.966v2.92h.63a1.68,1.68,0,0,1,1.605,1.742v10.63A1.679,1.679,0,0,1-2558.749,24Zm.708-2.5h14.232V12.385h-14.232Zm2.459-14.536v2.92h9.536V6.966A4.473,4.473,0,0,0-2566.46,2.5,4.472,4.472,0,0,0-2571.229,6.966Z" transform="translate(2578.572)"/>
    <rect id="icon-lock_矩形_8184" data-name="矩形 8184" width="24" height="24" fill="none"/>
  </g>
</symbol><symbol xmlns="http://www.w3.org/2000/svg" viewBox="0 0 30 30" id="icon-mail"><path class="a" d="M173.639,216.691l-12.427,7.175L149.1,216.878v-1.043a2.235,2.235,0,0,1,2.235-2.235h20.073a2.235,2.235,0,0,1,2.235,2.235v.857Zm0,2.577v12.176a2.235,2.235,0,0,1-2.235,2.235H151.335a2.235,2.235,0,0,1-2.235-2.235v-11.99l11.557,6.67a1.113,1.113,0,0,0,1.219-.068c.017-.007.03-.017.047-.024Z" transform="translate(-146.373 -208.145)"/></symbol><symbol xmlns="http://www.w3.org/2000/svg" xmlns:xlink="http://www.w3.org/1999/xlink" class="icon" viewBox="0 0 1024 1024" id="icon-menu"><path d="M127.6 259h768.9c35.4 0 64.1-28.7 64.1-64.1s-28.7-64.1-64.1-64.1H127.6c-35.4 0-64.1 28.7-64.1 64.1S92.2 259 127.6 259zM896.4 765H127.6c-35.4 0-64.1 28.7-64.1 64.1s28.7 64.1 64.1 64.1h768.9c35.4 0 64.1-28.7 64.1-64.1S931.8 765 896.4 765zM127.6 576.1H512c35.4 0 64.1-28.7 64.1-64.1s-28.7-64-64.1-64H127.6c-35.4 0-64.1 28.7-64.1 64.1s28.7 64 64.1 64zM938.8 477l-159.1-88.4c-28.2-15.6-62.8 4.7-62.7 36.9v176.7c0 32.2 34.6 52.6 62.8 36.9l159.1-88.4c28.8-15.9 28.8-57.6-0.1-73.7z" p-id="49627"/></symbol><symbol xmlns="http://www.w3.org/2000/svg" viewBox="0 0 22 22" id="icon-my_info"><defs><style>#icon-my_info .a{fill:none;}</style></defs><rect class="a" width="22" height="22"/><path class="b" d="M137,117.667a21.665,21.665,0,0,1,5.85.817,4.308,4.308,0,0,1,3.15,4.15v1.033a2,2,0,0,1-2,2H130a2,2,0,0,1-2-2v-1.033a4.309,4.309,0,0,1,3.15-4.15A21.7,21.7,0,0,1,137,117.667Zm0-11a5,5,0,1,1-5,5A5,5,0,0,1,137,106.667Z" transform="translate(-126 -104.667)"/></symbol><symbol xmlns="http://www.w3.org/2000/svg" xmlns:xlink="http://www.w3.org/1999/xlink" viewBox="0 0 24 24" id="icon-notice">
    
    <g id="icon-notice_页面-1" stroke="none" stroke-width="1">
        <g id="icon-notice_公告09">
            <rect id="icon-notice_矩形" opacity="0" x="0" y="0" width="24" height="24"/>
            <path d="M24,9.2107143 C23.9144385,8.46428572 23.2299465,7.91428572 22.4171123,7.91428572 L17.7112299,7.91428572 L16.2139037,6.53928571 L13.8609626,4.37857144 C14.1604278,4.02500001 14.2887701,3.59285716 14.28877,3.12142857 C14.28877,1.94285714 13.3048128,1 12.0213904,1 C10.7807487,1 9.7540107,1.94285714 9.7540107,3.08214287 L9.7540107,3.27857143 C9.79679145,3.67142858 9.9251337,4.02500001 10.1818182,4.33928572 L6.33155079,7.875 L1.62566844,7.875 C0.727272719,7.875 0,8.54285714 0,9.36785714 L0,21.5464286 C0.042780757,22.3321428 0.770053476,23 1.6684492,23 L22.4171123,23 C23.315508,23 24,22.3321429 24,21.5071428 L24,9.2107143 Z M8.57142858,7.45833333 L11.1648352,5 C11.6923077,5.20833333 12.2637363,5.20833333 12.8351648,5 L13.5384615,5.66666667 L16,8 L8,8 L8.57142858,7.45833333 Z M3.88105726,12 L12.1189427,12 C12.6035242,12 13,12.45 13,13 C13,13.55 12.6035242,14 12.1189427,14 L3.88105726,14 C3.39647577,14 3,13.55 3,13 C3,12.45 3.39647577,12 3.88105726,12 L3.88105726,12 Z M14.1340206,19 L3.82474226,19 C3.37113402,19 3,18.55 3,18 C3,17.45 3.37113402,17 3.82474226,17 L14.1752577,17 C14.628866,17 15,17.45 15,18 C15,18.55 14.5876289,19 14.1340206,19 L14.1340206,19 Z M20.1469194,16 L3.85308056,16 C3.38388626,16 3,15.55 3,15 C3,14.45 3.38388626,14 3.85308056,14 L20.1469194,14 C20.6161137,14 21,14.45 21,15 C21,15.55 20.6161137,16 20.1469194,16 Z" id="icon-notice_形状" fill-rule="nonzero"/>
        </g>
    </g>
</symbol><symbol xmlns="http://www.w3.org/2000/svg" viewBox="0 0 20 20" id="icon-notify"><path class="a" d="M202.4,192.194l-6.7,4.8H193a.945.945,0,0,0-1,1v8.1a1.063,1.063,0,0,0,1,.9h2.7l6.7,4.8a1,1,0,0,0,1.6-.8v-18A1,1,0,0,0,202.4,192.194Zm-.4,2.7v14.1l-5.4-3.9-.1-.1H194v-6h2a1.42,1.42,0,0,0,.6-.2Z" transform="translate(-192 -191.994)"/><path class="a" d="M641,352a5,5,0,0,1,0,10,.945.945,0,0,1-1-1,1.064,1.064,0,0,1,.9-1h.1a3,3,0,0,0,0-6,1,1,0,1,1,0-2Z" transform="translate(-626 -347)"/></symbol><symbol xmlns="http://www.w3.org/2000/svg" xmlns:xlink="http://www.w3.org/1999/xlink" viewBox="0 0 24 24" id="icon-partner">
    <title>握手</title>
    <g id="icon-partner_页面-1" stroke="none" stroke-width="1">
        <g id="icon-partner_握手">
            <rect id="icon-partner_矩形" opacity="0" x="0" y="0" width="24" height="24"/>
            <g id="icon-partner_合作" transform="translate(0.000000, 2.000000)">
                <path d="M21.1125,3.3300397 L22.5,3.3300397 C23.3284271,3.33003972 24,4.0016126 24,4.83003972 L24,12.3300397 C24,13.1584668 23.3284271,13.8300397 22.5,13.8300397 L19.76925,13.8300397 L13.4925,4.76253972 L12.76275,3.72903973 L8.29575001,5.79153971 C8.00706102,5.92480653 7.68349141,5.962889 7.37175,5.90028973 C6.00824999,5.62653972 5.55075001,5.14953972 5.99924999,4.46853971 C6.43349999,3.80928971 8.28149998,2.48328972 11.544,0.489039725 C11.6295,0.436539737 11.718,0.391539737 11.80875,0.355539702 C13.179,-0.289460311 14.74275,-0.0569602869 16.49925,1.05378973 C17.9513626,1.97452534 19.497625,2.73759956 21.11175,3.3300397 L21.1125,3.3300397 Z M1.02449999,13.7527897 C0.412540483,13.5482495 0,12.975277 0,12.3300397 L0,4.8300397 C0,4.0016126 0.67157286,3.3300397 1.5,3.3300397 L4.959,3.3300397 L4.95299999,3.33528973 C4.53039612,3.7159666 4.29586801,4.26273724 4.31130884,4.83130605 C4.32674967,5.39987487 4.59060791,5.93311065 5.03325,6.29028972 C6.13281939,7.17779985 7.61691656,7.42453278 8.9445,6.94053972 L12.31875,5.71053971 L14.685,9.13053971 C14.7577588,9.20030281 14.823337,9.2771876 14.88075,9.36003971 L19.02825,15.3540397 C19.2761376,15.7123694 19.3559657,16.1607781 19.2469723,16.5826417 C19.1379789,17.0045052 18.8509363,17.3581285 18.4605,17.5515397 L11.835,20.8297897 C11.5275,20.9820397 11.19,21.0195397 10.875,20.9557897 L11.12025,20.7075397 C12.2754906,19.5388408 12.2754906,17.6582387 11.12025,16.4895397 L6.32025001,11.6325397 C5.89754409,11.2047347 5.32116285,10.963963 4.71975,10.963963 C4.11833715,10.963963 3.54195591,11.2047347 3.11924999,11.6325397 L1.02375,13.7527897 L1.02449999,13.7527897 Z M5.72699999,13.1077897 L9.984,17.4142897 C10.3574626,17.7924036 10.5029684,18.3399049 10.3665,18.8535397 L10.152,19.6657897 C10.0539268,20.0356002 9.77930644,20.3329743 9.41845482,20.460113 C9.05760319,20.5872516 8.65722692,20.5276987 8.34899998,20.3010397 L2.8755,16.2750397 C2.52453466,16.0168026 2.303206,15.6187148 2.2690822,15.1843202 C2.23495839,14.7499256 2.39141236,14.3221612 2.69775,14.0122897 L3.59249998,13.1062897 C3.87429439,12.8211636 4.25849475,12.6606984 4.65937499,12.6606984 C5.06025524,12.6606984 5.44445559,12.8211636 5.72625001,13.1062897 L5.72699999,13.1077897 Z" id="icon-partner_形状"/>
            </g>
        </g>
    </g>
</symbol><symbol xmlns="http://www.w3.org/2000/svg" viewBox="0 0 24 24" id="icon-recharge">
  <g id="icon-recharge_组_3803" data-name="组 3803" transform="translate(240 -436)">
    <rect id="icon-recharge_矩形_8424" data-name="矩形 8424" width="24" height="24" transform="translate(-240 436)" fill="none"/>
    <path id="icon-recharge_路径_2374" data-name="路径 2374" d="M-232,453a9.01,9.01,0,0,1,9-9,8.938,8.938,0,0,1,1,.059V438a2,2,0,0,0-2-2h-14a2,2,0,0,0-2,2v20a2,2,0,0,0,2,2h9.356A8.983,8.983,0,0,1-232,453Zm-5-14h10a1,1,0,0,1,1,1,1,1,0,0,1-1,1h-10a1,1,0,0,1-1-1A1,1,0,0,1-237,439Zm0,4h5a1,1,0,0,1,1,1,1,1,0,0,1-1,1h-5a1,1,0,0,1-1-1A1,1,0,0,1-237,443Zm2,10h-2a1,1,0,0,1-1-1,1,1,0,0,1,1-1h2a1,1,0,0,1,1,1A1,1,0,0,1-235,453Zm1-4h-3a1,1,0,0,1-1-1,1,1,0,0,1,1-1h3a1,1,0,0,1,1,1A1,1,0,0,1-234,449Zm9.09,2.052c0,.644.23.77.608.9l.748.259V450.1h-.482A.92.92,0,0,0-224.91,451.052ZM-223,446a7,7,0,0,0-7,7,7,7,0,0,0,7,7,7,7,0,0,0,7-7A7,7,0,0,0-223,446Zm3.03,8.956a2.027,2.027,0,0,1-1.992,2.059h-.482v.429A.555.555,0,0,1-223,458a.556.556,0,0,1-.556-.556v-.429h-.266a2.242,2.242,0,0,1-2.2-2.282.555.555,0,0,1,.555-.555.556.556,0,0,1,.556.555,1.134,1.134,0,0,0,1.088,1.171h.266v-2.5l-1.118-.4a1.853,1.853,0,0,1-1.356-1.956,2.028,2.028,0,0,1,1.993-2.059h.481v-.429A.556.556,0,0,1-223,448a.556.556,0,0,1,.556.556v.429h.266a2.242,2.242,0,0,1,2.2,2.282.556.556,0,0,1-.555.555.556.556,0,0,1-.556-.555,1.135,1.135,0,0,0-1.089-1.171h-.266v2.5l1.118.4a1.853,1.853,0,0,1,1.356,1.956Zm-1.718-.9-.748-.259V455.9h.474a.924.924,0,0,0,.881-.948C-221.081,454.31-221.31,454.184-221.688,454.051Z" fill="currentColor"/>
  </g>
</symbol><symbol xmlns="http://www.w3.org/2000/svg" viewBox="0 0 22 22" id="icon-refresh"><defs><style>#icon-refresh .a{fill:#5a5a5a;}</style></defs><path class="a" d="M72.935,61.915a11,11,0,1,0,11,11,11,11,0,0,0-11-11Zm-.019,17.276A5.944,5.944,0,0,1,67.349,75.3l.009,0a.758.758,0,0,1-.087-.342.781.781,0,0,1,.781-.782.77.77,0,0,1,.732.542l.012,0a4.374,4.374,0,1,0,4.12-5.837,4.331,4.331,0,0,0-1.5.277l.551,1.055a.391.391,0,0,1,.1.266.423.423,0,0,1-.4.391h-.024l-3.9-.168a.39.39,0,0,1-.312-.6l2.1-3.3a.4.4,0,0,1,.346-.18.391.391,0,0,1,.329.209l.482.924a5.937,5.937,0,1,1,2.233,11.438Zm0,0" transform="translate(-61.935 -61.915)"/></symbol><symbol xmlns="http://www.w3.org/2000/svg" viewBox="0 0 24 24" id="icon-search">
    <path data-name="矩形 8435" style="fill:none" d="M0 0h24v24H0z"/>
    <path data-name="路径 2370" d="m2207.7 4654.606-4.326-4.326a7.858 7.858 0 0 1-4.507 1.429h-.013a7.853 7.853 0 1 1 6.428-3.336l4.325 4.327a1.338 1.338 0 0 1 .092 1.8l-.016.02-.082.089a1.344 1.344 0 0 1-1.9 0zm.354-.354a.842.842 0 0 0 1.143.046.843.843 0 0 1-1.143-.046l-4.633-4.631a7.327 7.327 0 0 1-4.554 1.587 7.323 7.323 0 0 0 4.554-1.587zm1.257-.07-.057.064-.007.006.007-.006.057-.064a.84.84 0 0 0 .189-.538.84.84 0 0 1-.19.538zm-17.81-10.327a7.354 7.354 0 0 0 7.354 7.354 7.354 7.354 0 0 1-7.354-7.354zm3.707-3.647a5.158 5.158 0 0 0 7.2 7.389c.025-.03.053-.062.084-.093l.019-.019a1.079 1.079 0 0 1 .089-.081 5.108 5.108 0 0 0 1.417-3.549 5.158 5.158 0 0 0-8.805-3.647zm9.414 8.213a7.322 7.322 0 0 0 1.589-4.565 7.322 7.322 0 0 1-1.59 4.564zm-.109-4.565a5.658 5.658 0 0 0-11.316 0 5.658 5.658 0 0 1 11.316 0z" transform="translate(-2188.5 -4633.499)"/>
</symbol><symbol xmlns="http://www.w3.org/2000/svg" viewBox="0 0 20 20" id="icon-sefety"><defs><style>#icon-sefety .a{fill:none;}</style></defs><rect class="a" width="20" height="20"/><path class="b" d="M178.461,128.29a.817.817,0,0,1,1.265.013c.856,1.069,3.225,2.424,7.067,2.887a.812.812,0,0,1,.717.805v8.14a4.12,4.12,0,0,1-.5,1.958c-2.289,4.237-4.921,5.9-7.937,5.9l-.161,0c-2.935-.084-5.508-1.745-7.753-5.9a4.14,4.14,0,0,1-.492-1.774l0-.185V132a.812.812,0,0,1,.717-.805c3.76-.453,6.112-1.783,7-2.813Zm4.6,7.312a.8.8,0,0,0-1.132,0l-3.678,3.749-.008.008a.526.526,0,0,1-.744-.01l-1.259-1.293a.8.8,0,0,0-1.132,0,.811.811,0,0,0,0,1.14l2.2,2.249a.8.8,0,0,0,1.132,0l4.62-4.7a.811.811,0,0,0,0-1.139Z" transform="translate(-169.001 -127.997)"/></symbol><symbol xmlns="http://www.w3.org/2000/svg" viewBox="0 0 16 16" id="icon-select">
    <path data-name="勾选" d="M8 16a8 8 0 1 1 8-8 8.009 8.009 0 0 1-8 8zM3.775 6.85a.761.761 0 0 0-.519.2.728.728 0 0 0-.233.515.719.719 0 0 0 .205.526l3.062 3.165.086.076a.762.762 0 0 0 1-.071l5.392-5.5.072-.085a.728.728 0 0 0-.093-.956.763.763 0 0 0-1.062.02L6.841 9.681l-2.522-2.6-.082-.074a.758.758 0 0 0-.462-.157z" style="fill:#41a81d"/>
</symbol><symbol xmlns="http://www.w3.org/2000/svg" viewBox="0 0 30 30" id="icon-service"><path class="b" d="M217.109,292.074a9.154,9.154,0,0,1,9.136,9.136,5.311,5.311,0,0,1-.062.988,19.2,19.2,0,0,1-3.333,1.111,25.977,25.977,0,0,1-3.272.494,1.71,1.71,0,0,0-1.42-.8h-1.852a1.6,1.6,0,0,0,0,3.21h1.852a1.488,1.488,0,0,0,1.481-.988,29.962,29.962,0,0,0,3.518-.556c.926-.247,1.79-.494,2.654-.8a9.037,9.037,0,0,1-8.642,6.42,9.154,9.154,0,0,1-9.136-9.136,9.049,9.049,0,0,1,9.074-9.074Zm.123-4.074a13.112,13.112,0,0,0-9.322,3.89,13.821,13.821,0,0,0-3.332,5.554h-.432a1.938,1.938,0,0,0-1.914,1.975v3.025a1.975,1.975,0,0,0,1.914,1.975h2.531v-6.728a10.5,10.5,0,0,1,2.716-4.321,11.111,11.111,0,0,1,7.9-3.272,10.994,10.994,0,0,1,7.9,3.272,10.7,10.7,0,0,1,2.593,4.136v6.913h2.469a1.988,1.988,0,0,0,1.975-1.975v-3.086a1.938,1.938,0,0,0-1.975-1.914h-.37A13.308,13.308,0,0,0,217.233,288Z" transform="translate(-202.232 -283.909)"/></symbol><symbol xmlns="http://www.w3.org/2000/svg" viewBox="0 0 16 16" id="icon-share"><defs><style>#icon-share .a{fill:#none;}</style></defs><path class="a" d="M3.2,15.93A3.2,3.2,0,0,1,0,12.73V3.13A3.2,3.2,0,0,1,3.2-.07H5.333a1.067,1.067,0,1,1,0,2.133H3.2A1.067,1.067,0,0,0,2.133,3.13v9.6A1.067,1.067,0,0,0,3.2,13.8h9.6a1.067,1.067,0,0,0,1.067-1.067V10.6A1.067,1.067,0,1,1,16,10.6V12.73a3.2,3.2,0,0,1-3.2,3.2Zm1.379-4.576a1.067,1.067,0,0,1,0-1.51l7.779-7.775H9.6a1.067,1.067,0,1,1,0-2.133h5.333A1.067,1.067,0,0,1,16,1V6.335a1.067,1.067,0,1,1-2.133,0V3.575L6.087,11.361a1.074,1.074,0,0,1-1.508,0Z" transform="translate(0 0.07)"/></symbol><symbol xmlns="http://www.w3.org/2000/svg" viewBox="0 0 22 22" id="icon-soccer">
  <rect id="icon-soccer_矩形_8369" data-name="矩形 8369" width="22" height="22" fill="none"/>
  <path id="icon-soccer_路径_2357" data-name="路径 2357" d="M1197.586,1876.8l2.662-3.173,5.308.136,2.367,3.357a9.484,9.484,0,0,1-10.337-.319Zm11.45-.473-2.573-3.416,1.719-4.893,4.071-1.182a9.495,9.495,0,0,1-3.215,9.49h0Zm-12.438-.318a9.5,9.5,0,0,1-2.714-9.687l4.137,1.672,1.4,4.855-2.827,3.161h0Zm3.934-3.568-1.342-4.636,3.9-2.684,3.782,2.928-1.587,4.514Zm7.069-5.4-3.82-2.957v-4.551a9.546,9.546,0,0,1,8.108,6.115l-4.288,1.394Zm-9.243-.148-4.027-1.777a9.513,9.513,0,0,1,8.263-5.607v4.472l-4.235,2.911h0Z" transform="translate(-1192 -1858)"/>
</symbol><symbol xmlns="http://www.w3.org/2000/svg" viewBox="0 0 28 28" id="icon-swap"><path class="a" d="M106.6,89.2a14,14,0,1,0,14,14A14,14,0,0,0,106.6,89.2Zm8.268,18.477a.521.521,0,0,1-.119.122l-5.8,4.289a.54.54,0,0,1-.863-.435v-2.76h-4.737q-5.065.03-5.5-5.007c.293.306,1.575,2.118,5.5,2.118q3.923,0,4.737-.089v-2.648a.541.541,0,0,1,.54-.54.559.559,0,0,1,.313.1l5.794,4.095A.544.544,0,0,1,114.868,107.677Zm-5.017-7.287q-3.923,0-4.737.089v2.648a.541.541,0,0,1-.54.54.559.559,0,0,1-.313-.1l-5.8-4.091a.539.539,0,0,1-.128-.754.521.521,0,0,1,.119-.122l5.794-4.289a.54.54,0,0,1,.863.435v2.76h4.737q5.065-.03,5.5,5.007C115.056,102.2,113.775,100.39,109.851,100.39Z" transform="translate(-92.6 -89.2)"/></symbol><symbol xmlns="http://www.w3.org/2000/svg" viewBox="0 0 20 20" id="icon-swap_sel">
  <circle id="icon-swap_sel_椭圆_20" data-name="椭圆 20" cx="7.857" cy="7.857" r="7.857" transform="translate(2.143 2.143)" fill="#fff"/>
  <path id="icon-swap_sel_交易" d="M102.6,89.2a10,10,0,1,0,10,10A10,10,0,0,0,102.6,89.2Zm5.906,13.2a.372.372,0,0,1-.085.087l-4.141,3.064a.386.386,0,0,1-.616-.311v-1.972H100.28q-3.618.021-3.929-3.576c.209.219,1.125,1.513,3.929,1.513q2.8,0,3.384-.064V99.247a.386.386,0,0,1,.386-.386.4.4,0,0,1,.224.071l4.139,2.925A.389.389,0,0,1,108.506,102.4Zm-3.584-5.2q-2.8,0-3.384.064v1.892a.386.386,0,0,1-.386.386.4.4,0,0,1-.224-.071l-4.141-2.922A.385.385,0,0,1,96.7,96a.372.372,0,0,1,.085-.087l4.139-3.064a.386.386,0,0,1,.616.311v1.972h3.384q3.618-.021,3.929,3.576C108.64,98.487,107.725,97.193,104.922,97.193Z" transform="translate(-92.6 -89.2)" fill="#0f1213"/>
</symbol><symbol xmlns="http://www.w3.org/2000/svg" viewBox="0 0 14 14" id="icon-time">
    <g data-name="时间 (1)">
        <path data-name="路径 2348" d="M213.848 206.848a7 7 0 1 0 7 7 7 7 0 0 0-7-7zm0 12.567a5.567 5.567 0 1 1 5.567-5.567 5.541 5.541 0 0 1-5.567 5.567z" transform="translate(-206.848 -206.848)" style=""/>
        <path data-name="路径 2349" d="M445.262 348.093h-1.973v-3.313a.716.716 0 1 0-1.433 0v4.04a.7.7 0 0 0 .716.716h2.69a.7.7 0 0 0 .716-.716.714.714 0 0 0-.716-.727z" transform="translate(-436.465 -340.916)" style=""/>
    </g>
</symbol><symbol xmlns="http://www.w3.org/2000/svg" viewBox="0 0 20.3 20" id="icon-timezone">
    <path data-name="矩形 8436" transform="translate(.15)" style="fill:none" d="M0 0h20v20H0z"/>
    <g data-name="组 3919">
        <path data-name="路径 2367" d="M28.59 24.565a8.948 8.948 0 0 0-2.976-5.865 9.521 9.521 0 0 0-9.931-1.687c-.012 0-.012.011-.024.011s-.012.011-.024.011a9.3 9.3 0 0 0-2.918 1.928A8.862 8.862 0 0 0 10 25.391a8.875 8.875 0 0 0 .306 2.307.16.16 0 0 0 .024.069 9.045 9.045 0 0 0 2.306 3.949 9.37 9.37 0 0 0 5.318 2.652c.024 0 .035.011.059.011a7.362 7.362 0 0 0 1.012.08h.212a5.974 5.974 0 0 0 1.8-.253.622.622 0 0 0 .388-.8.658.658 0 0 0-.612-.425.756.756 0 0 0-.224.034 4.774 4.774 0 0 1-1.365.184h-.106a1.589 1.589 0 0 0 .059-.941c-.153-.6-.647-1.1-1.577-1.6l-.388-.207a3.4 3.4 0 0 1-1.165-.758 3.914 3.914 0 0 1-.518-1.6 1.918 1.918 0 0 0-1.012-1.377 2.889 2.889 0 0 0-1.318-.287 5.655 5.655 0 0 0-1.188.138c-.212.046-.412.1-.588.149a7.347 7.347 0 0 1-.118-1.354A7.782 7.782 0 0 1 15 18.779a2.05 2.05 0 0 0 .188.769 2.375 2.375 0 0 0 1.847 1.205.452.452 0 0 0 .118.011h.047a2.245 2.245 0 0 1 .706.126 1.132 1.132 0 0 1 .765.907 16.545 16.545 0 0 1 .141 4.81.636.636 0 0 0-.035.207.645.645 0 0 0 .647.631.658.658 0 0 0 .459-.184c.118-.115 2.765-2.732 3.471-3.6.082-.1.165-.2.259-.3a3.057 3.057 0 0 0 .824-1.366 3.1 3.1 0 0 0-.459-2.192 3.128 3.128 0 0 1-.4-1 .259.259 0 0 1 .059-.034 7.778 7.778 0 0 1 3.663 5.887.636.636 0 0 0 .647.574H28a.611.611 0 0 0 .588-.666zM13.2 27.721a1.536 1.536 0 0 1 .706.138.654.654 0 0 1 .341.505 4.97 4.97 0 0 0 .765 2.124 4.374 4.374 0 0 0 1.588 1.1l.024.011c.106.057.235.115.353.184.741.39.906.654.941.781a.763.763 0 0 1-.153.494 7.876 7.876 0 0 1-6.024-5.1 5.954 5.954 0 0 1 1.459-.241zm9.625-7.312c.635 1.194.353 1.515-.212 2.158-.094.1-.188.207-.282.321-.353.436-1.283 1.389-2.094 2.215 0-.4-.024-.861-.059-1.354-.082-1.125-.224-2.078-.224-2.112V21.6a2.4 2.4 0 0 0-1.612-1.882 3.4 3.4 0 0 0-1.13-.207 1.154 1.154 0 0 1-.859-.494 1.267 1.267 0 0 1 .047-.93 8.155 8.155 0 0 1 2.906-.539 8.339 8.339 0 0 1 3.13.608 1.251 1.251 0 0 0-.153.459 3.279 3.279 0 0 0 .541 1.791z" transform="translate(-9.85 -15.3)" style="stroke-width:.3px"/>
        <path data-name="路径 2368" d="M103.626 93.3a4.626 4.626 0 1 0 4.626 4.626 4.631 4.631 0 0 0-4.626-4.626zm0 7.991A3.376 3.376 0 1 1 107 97.915a3.384 3.384 0 0 1-3.376 3.376z" transform="translate(-88.103 -83.371)" style="stroke-width:.3px"/>
        <path data-name="路径 2369" d="M133.95 113.962v-2.137a.625.625 0 0 0-1.25 0v2.4a.648.648 0 0 0 .182.443l1.125 1.137a.627.627 0 0 0 .443.182.648.648 0 0 0 .443-.182.631.631 0 0 0 0-.887l-.943-.955z" transform="translate(-118.085 -99.236)" style="stroke-width:.3px"/>
    </g>
</symbol><symbol xmlns="http://www.w3.org/2000/svg" xmlns:xlink="http://www.w3.org/1999/xlink" viewBox="0 0 24 24" id="icon-tip">
    <title>failed</title>
    <g id="icon-tip_页面-1" stroke="none" stroke-width="1" fill-rule="evenodd">
        <g id="icon-tip_用户认证" transform="translate(-1555.000000, -1788.000000)" fill-rule="nonzero">
            <g id="icon-tip_编组-3备份-5" transform="translate(857.000000, 1228.000000)">
                <g id="icon-tip_failed" transform="translate(698.000000, 560.000000)">
                    <circle id="icon-tip_椭圆形" cx="12" cy="12" r="12"/>
                    <circle id="icon-tip_椭圆形" fill="#FFFFFF" cx="11.9097744" cy="18.0451128" r="1.44360903"/>
                    <path d="M11.9533647,4.51557704 C12.8480974,4.51557704 13.4764429,5.26558175 13.4396357,5.76388377 L12.8786753,14.0751879 C12.8418681,14.57349 12.4080765,14.9774437 11.9097744,14.9774437 C11.4114723,14.9774437 10.9819481,14.57349 10.9504052,14.0751879 L10.4599742,5.76388377 C10.4284313,5.26558175 11.0586323,4.51557704 11.9533647,4.51557704 Z" id="icon-tip_矩形" fill="#FFFFFF"/>
                </g>
            </g>
        </g>
    </g>
</symbol><symbol xmlns="http://www.w3.org/2000/svg" viewBox="0 0 16 16" id="icon-wallet"><path class="a" d="M8435.108,9186.781h-10.667a2.669,2.669,0,0,1-2.668-2.666v-10.666a2.672,2.672,0,0,1,2.668-2.668h10.667a2.669,2.669,0,0,1,2.665,2.668v.889h-6.222a4.444,4.444,0,1,0,0,8.889h6.222v.889A2.667,2.667,0,0,1,8435.108,9186.781Z" transform="translate(-8421.773 -9170.781)"/><path class="a" d="M8430.779,9176.781h-6a3,3,0,1,1,0-6h6v6Zm-6-4a1,1,0,1,0,1,1A1,1,0,0,0,8424.782,9172.781Z" transform="translate(-8414.78 -9165.779)"/></symbol><symbol xmlns="http://www.w3.org/2000/svg" viewBox="0 0 22 22" id="icon-water">
  <rect id="icon-water_矩形_8161" data-name="矩形 8161" width="22" height="22" fill="none"/>
  <path id="icon-water_路径_2358" data-name="路径 2358" d="M1135.644-601.77h-.036a9.539,9.539,0,0,1-6.781-2.807,9.567,9.567,0,0,1-2.827-6.778,9.627,9.627,0,0,1,9.587-9.644h.018a9.568,9.568,0,0,1,6.793,2.8,9.559,9.559,0,0,1,2.833,6.782,9.539,9.539,0,0,1-2.8,6.8A9.564,9.564,0,0,1,1135.644-601.77Zm-3.161-7.736a.7.7,0,0,0-.7.706,2.849,2.849,0,0,0,2.794,2.9h.339v.548a.715.715,0,0,0,.7.706.715.715,0,0,0,.7-.706v-.548h.611a2.575,2.575,0,0,0,2.528-2.615,2.339,2.339,0,0,0-1.719-2.48l-1.42-.508v-3.179h.339a1.437,1.437,0,0,1,1.381,1.485.707.707,0,0,0,.707.706.706.706,0,0,0,.706-.706,2.849,2.849,0,0,0-2.794-2.9h-.339v-.546a.715.715,0,0,0-.7-.706.715.715,0,0,0-.7.706v.546h-.613a2.576,2.576,0,0,0-2.531,2.614,2.342,2.342,0,0,0,1.723,2.483l1.421.508v3.176h-.339a1.439,1.439,0,0,1-1.385-1.484A.707.707,0,0,0,1132.484-609.506Zm4.451,2.192h-.6v-2.679l.949.33c.481.168.773.33.773,1.146A1.165,1.165,0,0,1,1136.934-607.314Zm-2.02-4.682h0l-.947-.331c-.482-.168-.774-.329-.774-1.146a1.166,1.166,0,0,1,1.109-1.213h.614V-612Z" transform="translate(-1124.615 622.385)"/>
</symbol><symbol xmlns="http://www.w3.org/2000/svg" viewBox="0 0 20 20" id="icon-water_sel">
  <circle id="icon-water_sel_椭圆_19" data-name="椭圆 19" cx="7.143" cy="7.143" r="7.143" transform="translate(2.857 2.857)" fill="#fff"/>
  <g id="icon-water_sel_组_3402" data-name="组 3402">
    <path id="icon-water_sel_路径_2125" data-name="路径 2125" d="M544.65,560.5a1.247,1.247,0,0,0,1.19-1.28c0-.87-.31-1.04-.82-1.22l-1.01-.35v2.85h.64Z" transform="translate(-533.249 -546.481)" fill="#0f1213"/>
    <path id="icon-water_sel_路径_2126" data-name="路径 2126" d="M85.331,91.01A10,10,0,1,0,95.3,80.98,10,10,0,0,0,85.331,91.01Zm14.09,2.71a2.737,2.737,0,0,1-2.69,2.78h-.65v.58a.75.75,0,0,1-1.5,0V96.5h-.36a3.027,3.027,0,0,1-2.97-3.08.75.75,0,1,1,1.5,0A1.531,1.531,0,0,0,94.22,95h.36V91.62l-1.51-.54a2.5,2.5,0,0,1-1.83-2.64,2.737,2.737,0,0,1,2.69-2.78h.65v-.58a.75.75,0,1,1,1.5,0v.58h.36a3.027,3.027,0,0,1,2.97,3.08.75.75,0,1,1-1.5,0,1.531,1.531,0,0,0-1.47-1.58h-.36v3.38l1.51.54A2.5,2.5,0,0,1,99.42,93.72Z" transform="translate(-85.33 -80.98)" fill="#0f1213"/>
    <path id="icon-water_sel_路径_2127" data-name="路径 2127" d="M402.825,347.171l1.01.35v-2.86h-.65a1.241,1.241,0,0,0-1.18,1.29C402.005,346.821,402.315,346.991,402.825,347.171Z" transform="translate(-394.583 -338.481)" fill="#0f1213"/>
  </g>
</symbol><symbol xmlns="http://www.w3.org/2000/svg" viewBox="0 0 42 42" id="icon-weihu">
    <g data-name="组 3756">
        <path data-name="游戏维护" d="m86.055 69.939-1.193 1.2a3.269 3.269 0 0 1-4.613-4.632l1.193-1.2c.658-.662.218-1.44-.968-1.255a5.943 5.943 0 0 0-3.3 1.682 6.017 6.017 0 0 0-1.618 5.485l-10.009 10.05a3.267 3.267 0 1 0 4.612 4.63l10.01-10.05a5.967 5.967 0 0 0 7.137-4.937c.185-1.192-.59-1.635-1.25-.973zM68.622 84.354a1.09 1.09 0 1 1-.02-1.519 1.084 1.084 0 0 1 .02 1.519zm-1.087-14.215 3.765 3.785 1.538-1.543-3.765-3.781-.845-1.62-2.69-1.93L64 66.589l1.922 2.7zm12.612 8.028a.542.542 0 0 0-.768 0l-2.307 2.317a.548.548 0 0 0 0 .772l5.442 5.463a2.18 2.18 0 0 0 3.077-3.088l-5.443-5.463z" transform="translate(-54.667 -54.691)" style="fill:#f4f4f4"/>
        <g data-name="矩形 8395" style="stroke:#f4f4f4;stroke-width:2px;fill:none">
            <rect width="42" height="42" rx="21" style="stroke:none"/>
            <rect x="1" y="1" width="40" height="40" rx="20" style="fill:none"/>
        </g>
    </g>
</symbol><symbol xmlns="http://www.w3.org/2000/svg" viewBox="0 0 20 20" id="icon-yue"><defs><style>#icon-yue .a{fill:none;}</style></defs><rect class="a" width="20" height="20"/><g transform="translate(-233.166 -233.167)"><path class="b" d="M251.666,386h-2.429a2.429,2.429,0,1,0,0,4.857h2.429v2.429a1.214,1.214,0,0,1-1.214,1.214H235.881a1.214,1.214,0,0,1-1.214-1.214V382.357h15.786a1.214,1.214,0,0,1,1.214,1.214Z" transform="translate(0 -143.487)"/><path class="b" d="M235.881,234.667H246.81a1.214,1.214,0,0,1,1.214,1.214V237.7H234.667v-1.821a1.214,1.214,0,0,1,1.214-1.214Zm13.357,9.06a1.214,1.214,0,1,1-1.214,1.214A1.214,1.214,0,0,1,249.238,243.727Z" transform="translate(-0.001 0)"/></g></symbol></svg>